<svg xmlns="http://www.w3.org/2000/svg" viewBox="0 0 396.5 132.49"><defs><style>.cls-1,.cls-2,.cls-3{fill:#003b5c;}.cls-2{font-size:112px;}.cls-2,.cls-3{font-family:EngraversGothicBT-Regular, EngraversGothic BT;}.cls-3{font-size:29.58px;}</style></defs><title>Brokers</title><g id="Camada_2" data-name="Camada 2"><g id="Layer_1" data-name="Layer 1"><path class="cls-1" d="M137.88,28.88l2.43,29L127,45.34,137.6,28.72Zm2,32.75L119,57.94l6.37-10ZM89.18,2l1.58-.32L135,27.2l-10.19,16L88.85,9.4ZM88.67,13.4l34.45,32.42-7.35,11.55L86.92,52.3ZM114,60.15,88.86,99.65l-3.74-.09-.3-.55,2-43.66ZM59.09,52.62l1.34-1.91,23.34,4.11L82,94ZM79.15,95.05,41.46,65.37,56.81,54.76ZM62.36,48,85.55,15,83.9,51.76ZM86.11,2.63l-.3,6.77-26.75,38-3.18-.56L36.79,12.4ZM30.93,13.56,33.66,13,52,46.15l-40-7Zm23,36,1.4,2.52L39,63.4,12,42.19Zm-45.11-6L36.35,65.21l-13.1,9.05L0,55.47ZM25.71,76.25l13.14-9.08L79.8,99.42l-34.42-.87-7.8-12.72Zm86.45,55.54L91.62,101l25.62-40.26,23.66,4.16,1.32,15.74-25.44,23.71Z"/><text class="cls-2" transform="translate(161.5 96.9)">HBR</text><text class="cls-3" transform="translate(219.05 125.51)">BROKERS</text></g></g></svg>