<svg xmlns="http://www.w3.org/2000/svg" viewBox="0 0 521.59 418.06"><defs><style>.cls-1{fill:#a61c1a;}.cls-2,.cls-3,.cls-4,.cls-5{fill:none;stroke-miterlimit:10;}.cls-2{stroke:#a61c1a;stroke-width:4px;}.cls-3{stroke:#8b1812;stroke-width:3px;}.cls-4{stroke:#898d8d;}.cls-4,.cls-5{stroke-width:2px;}.cls-5{stroke:#a31916;}.cls-6{fill:#8b1812;}</style></defs><title>Logo Paladino</title><g id="Camada_2" data-name="Camada 2"><g id="Camada_3" data-name="Camada 3"><path class="cls-1" d="M126.28,413.25q-5.73-4.81-5.74-13.59,0-8.43,5.25-13.05T140.61,382H160.4l.8,7.68H140.67q-5.73,0-8.86,2.61a10,10,0,0,0,.81,15.2q3.91,2.77,11.09,2.78,7.68,0,11.93-1.55c2.83-1,4.24-2.49,4.24-4.36l1.21,7.8a16.18,16.18,0,0,1-4.56,3.18,25.75,25.75,0,0,1-6.37,2,40.82,40.82,0,0,1-7.71.68Q132,418.06,126.28,413.25Zm33.6-33.78q0-7.22-3.87-11.21t-11-4a26,26,0,0,0-8.31,1.37,23.53,23.53,0,0,0-7.23,3.9l-6-4.13a22.32,22.32,0,0,1,8.92-6.33,32.12,32.12,0,0,1,12.3-2.27,28.32,28.32,0,0,1,12.67,2.61,18.23,18.23,0,0,1,8,7.57,24.36,24.36,0,0,1,2.75,12V417.2h-8.26Z"/><path class="cls-1" d="M194.17,401.55a8.52,8.52,0,0,0,1.87,5.88,6.6,6.6,0,0,0,5.19,2.09h5.5v7.68h-6.88q-6.66,0-10.29-4.12t-3.64-11.64V333.83h8.25Z"/><path class="cls-1" d="M228.18,401.55a8.57,8.57,0,0,0,1.86,5.88,6.6,6.6,0,0,0,5.19,2.09h5.5v7.68h-6.88q-6.65,0-10.29-4.12t-3.64-11.64V333.83h8.26Z"/><path class="cls-1" d="M256.22,413.25q-5.75-4.81-5.74-13.59,0-8.43,5.25-13.05T270.55,382h19.78l.81,7.68H270.61c-3.82,0-6.78.87-8.86,2.61a10,10,0,0,0,.8,15.2q3.93,2.77,11.1,2.78,7.68,0,11.93-1.55c2.82-1,4.24-2.49,4.24-4.36l1.2,7.8a15.9,15.9,0,0,1-4.56,3.18,25.53,25.53,0,0,1-6.36,2,40.82,40.82,0,0,1-7.71.68Q262,418.06,256.22,413.25Zm33.6-33.78q0-7.22-3.87-11.21t-11-4a26.05,26.05,0,0,0-8.32,1.37,23.59,23.59,0,0,0-7.22,3.9l-6-4.13a22.29,22.29,0,0,1,8.91-6.33,32.19,32.19,0,0,1,12.3-2.27,28.37,28.37,0,0,1,12.68,2.61,18.15,18.15,0,0,1,8,7.57,24.25,24.25,0,0,1,2.76,12V417.2h-8.26Z"/><path class="cls-1" d="M323.59,415.23a18,18,0,0,1-7-8.23,31.6,31.6,0,0,1-2.41-13v-13A33,33,0,0,1,316.48,368a17.8,17.8,0,0,1,6.86-8.29,19.85,19.85,0,0,1,10.8-2.84,26.43,26.43,0,0,1,12,2.56,18.91,18.91,0,0,1,8.23,8.34l-1.21,11.47a16,16,0,0,0-1.8-7.4A14.54,14.54,0,0,0,338,363.93q-7.46,0-11.53,4.51t-4.07,12.7V394q0,8,4.07,12.47T338,411a14.39,14.39,0,0,0,8-2.23,14.92,14.92,0,0,0,5.28-5.82,16.28,16.28,0,0,0,1.83-7.49l.81,12.45a14.44,14.44,0,0,1-7.11,7.83,27.58,27.58,0,0,1-12.1,2.37A21,21,0,0,1,323.59,415.23Zm29.53-81.4h8.26V417.2h-8.26Z"/><path class="cls-1" d="M380.88,333.83h8.26v8.26h-8.26Zm0,23.85h8.26V417.2h-8.26Z"/><path class="cls-1" d="M408.63,357.68h8.26V417.2h-8.26Zm39.57,23.46q0-7.92-4.16-12.27t-11.73-4.36q-7.33,0-11.38,3.87t-4,11l-1.21-11.47a19.4,19.4,0,0,1,8.38-8.46,26.68,26.68,0,0,1,12.1-2.61q9.69,0,15,6.34t5.3,17.92V417.2H448.2Z"/><path class="cls-1" d="M483.81,415a20.07,20.07,0,0,1-8.4-8.86,31.09,31.09,0,0,1-2.9-14v-9.69a30.43,30.43,0,0,1,2.9-13.85,20,20,0,0,1,8.4-8.78,30.65,30.65,0,0,1,26.49,0,20,20,0,0,1,8.4,8.78,30.56,30.56,0,0,1,2.89,13.85v9.86a30.66,30.66,0,0,1-2.89,13.9,20.11,20.11,0,0,1-8.4,8.81,30.46,30.46,0,0,1-26.49,0Zm25.25-9.38q4.28-4.72,4.28-13.33v-9.86q0-8.55-4.28-13.25T497,364.51q-7.74,0-12,4.7t-4.24,13.25v9.86q0,8.6,4.24,13.33t12,4.73Q504.79,410.38,509.06,405.65Z"/><path class="cls-2" d="M2,213.29H89a69.85,69.85,0,0,1,69.85,69.85h0A69.84,69.84,0,0,1,89,353H2"/><rect class="cls-2" x="2" y="270.84" width="68.86" height="139.71"/><path class="cls-3" d="M228.11,52.35H284a44.88,44.88,0,0,1,44.87,44.88h0A44.87,44.87,0,0,1,284,142.11H228.11"/><rect class="cls-3" x="228.11" y="89.33" width="44.25" height="89.77"/><polygon class="cls-4" points="173.86 18 335.41 18 341.06 18 358.66 18 358.66 151.06 268.11 241.62 175.71 149.21 173.86 18"/><path class="cls-5" d="M266.26,262.68l82.42-82.42s-29.93-43.24,24-58.77V41.66S339.44,42.4,332.79,1H198.25s-1.48,39.92-39.92,39.18v80.57S213.78,131.1,182,179.89Z"/><line class="cls-4" x1="358.66" y1="31.51" x2="358.66" y2="43.08"/><line class="cls-4" x1="347.63" y1="162.09" x2="338.48" y2="171.24"/><line class="cls-4" x1="175.22" y1="114.9" x2="175.22" y2="134.55"/><line class="cls-4" x1="174.05" y1="31.51" x2="174.05" y2="46.58"/><path class="cls-6" d="M251.11,289.43h16v2.09h-16Zm6.86.92h2.25v21.71H258Z"/><path class="cls-6" d="M272.75,311.32a6.5,6.5,0,0,1-2.71-2.85,9.92,9.92,0,0,1-.94-4.51v-6.42A9.89,9.89,0,0,1,270,293a6.39,6.39,0,0,1,2.71-2.85,9.95,9.95,0,0,1,8.61,0,6.47,6.47,0,0,1,2.72,2.85,10,10,0,0,1,.93,4.51V304a10,10,0,0,1-.93,4.51,6.57,6.57,0,0,1-2.72,2.85,9.95,9.95,0,0,1-8.61,0Zm7.4-1.83a4.73,4.73,0,0,0,2-2.1,7.52,7.52,0,0,0,.67-3.33v-6.63a7.5,7.5,0,0,0-.67-3.32,4.73,4.73,0,0,0-2-2.1,7,7,0,0,0-6.18,0,4.7,4.7,0,0,0-2,2.1,7.65,7.65,0,0,0-.67,3.32v6.63a7.66,7.66,0,0,0,.67,3.33,4.7,4.7,0,0,0,2,2.1,7,7,0,0,0,6.18,0Z"/><path class="cls-6" d="M300.06,289.43h1.56l4.95,19.46,4.78-19.46h2.52l-6.15,22.63h-2.3l-4.49-17.83-4.67,17.83H294l-6.15-22.63h2.52l4.78,19.46Z"/><path class="cls-6" d="M317.29,289.43h2.24v22.63h-2.24Zm1.54,0h13v2.09h-13Zm0,10.35h11.29v2.09H318.83Zm0,10.2h13v2.08h-13Z"/><path class="cls-6" d="M336.34,289.42h2.24v22.64h-2.24Zm1.39,11h7.72a4.36,4.36,0,0,0,2.22-.56,3.72,3.72,0,0,0,1.48-1.56,5.23,5.23,0,0,0,.53-2.33,5,5,0,0,0-.52-2.34,3.72,3.72,0,0,0-1.48-1.56,4.37,4.37,0,0,0-2.23-.56h-7.72v-2.08h7.59a7.09,7.09,0,0,1,3.45.81,5.72,5.72,0,0,1,2.31,2.29,7.69,7.69,0,0,1,0,6.87,5.69,5.69,0,0,1-2.32,2.29,7.08,7.08,0,0,1-3.44.81h-7.59Zm7.25,1.38,2.07-.71,5.79,11h-2.68Z"/><path class="cls-6" d="M179.54,289.51h2.24v22.63h-2.24Zm1.51,10.37h13.5V302h-13.5Zm12.28-10.37h2.24v22.63h-2.24Z"/><path class="cls-6" d="M201.18,289.51h2.24v22.63h-2.24Zm1.87,20.55h6.21a6.51,6.51,0,0,0,4.19-1.09,3.7,3.7,0,0,0,1.32-3v0a5.15,5.15,0,0,0-.49-2.31,3.28,3.28,0,0,0-1.55-1.48,6,6,0,0,0-2.7-.53h-7v-2.08h7a4.92,4.92,0,0,0,3.33-1,4.36,4.36,0,0,0-.1-5.92,5.71,5.71,0,0,0-3.66-1h-6.55v-2.09h7a8.08,8.08,0,0,1,3.67.75,4.94,4.94,0,0,1,2.21,2.12,6.79,6.79,0,0,1,.73,3.26,5.27,5.27,0,0,1-.45,2.17,4.59,4.59,0,0,1-1.38,1.76,5.2,5.2,0,0,1-2.29,1,5,5,0,0,1,3.89,2.89,6,6,0,0,1,.53,2.49V306a6.39,6.39,0,0,1-.81,3.24,5.45,5.45,0,0,1-2.32,2.16,7.7,7.7,0,0,1-3.52.76h-7.31Z"/><path class="cls-6" d="M221.75,289.5H224v22.64h-2.25Zm1.39,11h7.72a4.35,4.35,0,0,0,2.22-.55,3.78,3.78,0,0,0,1.48-1.56,5.3,5.3,0,0,0,.53-2.34,5,5,0,0,0-.52-2.33,3.68,3.68,0,0,0-1.48-1.57,4.44,4.44,0,0,0-2.23-.55h-7.72V289.5h7.59a7.2,7.2,0,0,1,3.45.8,5.75,5.75,0,0,1,2.31,2.3,7.67,7.67,0,0,1,0,6.86,5.68,5.68,0,0,1-2.31,2.3,7.15,7.15,0,0,1-3.45.81h-7.59Zm7.25,1.39,2.07-.72,5.79,11h-2.67Z"/></g></g></svg>