<svg xmlns="http://www.w3.org/2000/svg" viewBox="0 0 441.39 441.39"><defs><style>.cls-1,.cls-2{fill:#fff;stroke:#424242;}.cls-1,.cls-2,.cls-3,.cls-6,.cls-8,.cls-9{stroke-linecap:round;stroke-linejoin:round;}.cls-1,.cls-2,.cls-3{stroke-width:2px;}.cls-2{stroke-dasharray:6;}.cls-3,.cls-6,.cls-9{fill:none;}.cls-3,.cls-6,.cls-8,.cls-9{stroke:#1d1d1b;}.cls-4{font-size:60px;font-family:SegoeUISymbol, Segoe UI Symbol;}.cls-4,.cls-5,.cls-7,.cls-8{fill:#1d1d1b;}.cls-5{font-size:24px;font-family:OpenSans-Bold, OpenSans Bold;font-weight:700;}.cls-6,.cls-8{stroke-width:19px;}.cls-9{stroke-width:8px;}</style></defs><title>Ativo 1</title><g id="Camada_2" data-name="Camada 2"><g id="Camada_4" data-name="Camada 4"><path class="cls-1" d="M220.69,1C342,1,440.39,99.36,440.39,220.69"/><path class="cls-1" d="M440.39,220.69c0,121.34-98.36,219.7-219.7,219.7S1,342,1,220.69,99.36,1,220.69,1"/><path class="cls-2" d="M220.69,13.56c114.4,0,207.14,92.74,207.14,207.13"/><path class="cls-2" d="M427.83,220.69c0,114.4-92.74,207.14-207.14,207.14S13.56,335.09,13.56,220.69,106.3,13.56,220.69,13.56"/><path class="cls-3" d="M350.92,220.69A130.23,130.23,0,1,1,220.69,90.46,130.22,130.22,0,0,1,350.92,220.69"/><text class="cls-4" transform="matrix(0.33, -0.95, 0.95, 0.33, 79.8, 180.42)">I</text><text class="cls-4" transform="translate(83.25 163.73) rotate(-57)">M</text><text class="cls-4" transform="translate(113.17 118.98) rotate(-37.84)">O</text><text class="cls-4" transform="translate(149.65 91.64) rotate(-22.15)">B</text><text class="cls-4" transform="translate(182.92 79.11) rotate(-11.76)">I</text><text class="cls-4" transform="translate(199.88 75.2) rotate(-2.58)">L</text><text class="cls-4" transform="translate(229.5 74.46) rotate(6.5)">I</text><text class="cls-4" transform="translate(246.69 75.41) rotate(17.67)">Á</text><text class="cls-4" transform="matrix(0.84, 0.54, -0.54, 0.84, 283.98, 87.56)">R</text><text class="cls-4" transform="translate(314.64 108.29) rotate(43.02)">I</text><text class="cls-4" transform="matrix(0.59, 0.81, -0.81, 0.59, 327.88, 119.3)">A</text><text class="cls-4" transform="matrix(0.37, 0.93, -0.93, 0.37, 350.56, 151.44)">S</text><text class="cls-5" transform="matrix(0.61, 0.79, -0.79, 0.61, 65.19, 324.07)">E</text><text class="cls-5" transform="translate(73.56 334.7) rotate(49.32)"> </text><text class="cls-5" transform="matrix(0.7, 0.72, -0.72, 0.7, 78, 339.97)">C</text><text class="cls-5" transform="matrix(0.75, 0.66, -0.66, 0.75, 88.77, 351.1)">O</text><text class="cls-5" transform="matrix(0.81, 0.59, -0.59, 0.81, 102.94, 363.19)">R</text><text class="cls-5" transform="matrix(0.85, 0.52, -0.52, 0.85, 115.05, 371.88)">R</text><text class="cls-5" transform="matrix(0.89, 0.46, -0.46, 0.89, 127.78, 379.58)">E</text><text class="cls-5" transform="translate(140.4 385.98) rotate(22.98)">T</text><text class="cls-5" transform="translate(152.63 391.21) rotate(18.29)">O</text><text class="cls-5" transform="matrix(0.97, 0.23, -0.23, 0.97, 170.38, 396.89)">R</text><text class="cls-5" transform="matrix(0.99, 0.16, -0.16, 0.99, 184.88, 400.2)">E</text><text class="cls-5" transform="translate(198.45 402.26) rotate(4.83)">S</text><text class="cls-5" transform="translate(211.99 403.27) rotate(1.81)"> </text><text class="cls-5" transform="translate(218.86 403.56) rotate(-1.5)">C</text><text class="cls-5" transform="translate(234.79 403.05) rotate(-6.07)">R</text><text class="cls-5" transform="translate(249.57 401.38) rotate(-10.35)">E</text><text class="cls-5" transform="translate(263.19 398.89) rotate(-15.14)">D</text><text class="cls-5" transform="translate(280.56 394.02) rotate(-19.94)">E</text><text class="cls-5" transform="translate(293.6 389.28) rotate(-24.71)">N</text><text class="cls-5" transform="matrix(0.87, -0.5, 0.5, 0.87, 309.79, 381.68)">C</text><text class="cls-5" transform="translate(323.35 373.71) rotate(-33.27)">I</text><text class="cls-5" transform="matrix(0.8, -0.6, 0.6, 0.8, 329.72, 369.63)">A</text><text class="cls-5" transform="matrix(0.74, -0.67, 0.67, 0.74, 343.13, 359.49)">D</text><text class="cls-5" transform="translate(356.57 347.25) rotate(-47.52)">O</text><text class="cls-5" transform="matrix(0.61, -0.79, 0.79, 0.61, 368.98, 333.43)">S</text></g><g id="Camada_7" data-name="Camada 7"><polyline class="cls-6" points="182.07 191.13 236.69 145.41 292.5 191.13"/><line class="cls-6" x1="206.41" y1="148.38" x2="206.41" y2="168.27"/><path class="cls-7" d="M190.19,225.33V200l47.09-39,47.5,38v45.79h-34V208.68H224.66v28s-9.49-10.65-17.81-10.82S190.19,225.33,190.19,225.33Z"/><line class="cls-8" x1="273" y1="236.38" x2="289.87" y2="236.38"/><path class="cls-9" d="M262.22,268.71l16.9-11.62a8.73,8.73,0,0,1,9.77-.18,5.27,5.27,0,0,1,2.57,4.49,6.12,6.12,0,0,1-.32,1.94h0a18.89,18.89,0,0,1-6.06,8.94l-17.21,14.11a12.3,12.3,0,0,1-7.81,2.79H203.27l-26.73-10.81"/><path class="cls-9" d="M174,236l27-.58A17.31,17.31,0,0,1,212.73,240l13.89,12.76a16.29,16.29,0,0,0,10.8,4.1h17c3.39,0,5.48,1,7.37,3.83a7.49,7.49,0,0,1,1.13,4.78c-.57,3.56-.69,4.31-2.69,5.28a12.87,12.87,0,0,1-4.8.94l-28.66.46c-5.78.1-4.41.61-9.67-2.14l-11.36-7.19"/><path class="cls-9" d="M145,229.24v59.94H170.2s4.26-4,3.76-14,0-42,0-42-1-9.59-9.54-9.79-19.48,0-19.48,0Z"/><circle class="cls-7" cx="161.8" cy="271.43" r="4.39"/></g></g></svg>