<svg xmlns="http://www.w3.org/2000/svg" viewBox="0 0 29.81 29.7"><defs><style>.cls-1{isolation:isolate;}.cls-2{opacity:0.86;mix-blend-mode:hard-light;}.cls-3{fill:#a61e1b;stroke:#d9d9d9;stroke-miterlimit:10;stroke-width:0.03px;}</style></defs><title>Acabamento em granito</title><g class="cls-1"><g id="Camada_2" data-name="Camada 2"><g id="Camada_1-2" data-name="Camada 1"><g class="cls-2"><polygon class="cls-3" points="6.22 3.91 4.71 0.02 18.81 1.96 22.64 9.3 26.87 9.3 29.19 14.08 26.47 14.26 29.79 20.36 25.46 21.15 28.98 27.61 23.49 29.68 19.87 21.99 13.62 23.14 10.9 15.63 3.55 16.07 0.02 3.6 6.22 3.91"/><line class="cls-3" x1="10.44" y1="0.81" x2="20.11" y2="22.59"/><line class="cls-3" x1="15.27" y1="1.48" x2="25.52" y2="21.2"/><line class="cls-3" x1="25.42" y1="21.11" x2="19.87" y2="21.99"/><polyline class="cls-3" points="10.4 15.63 26.37 14.29 23.57 9.3"/><line class="cls-3" x1="1.66" y1="9.4" x2="22.69" y2="9.26"/><line class="cls-3" x1="20.24" y1="4.64" x2="0.02" y2="3.6"/><line class="cls-3" x1="10.9" y1="15.63" x2="6.17" y2="3.6"/><line class="cls-3" x1="15.81" y1="12.92" x2="16.78" y2="15.09"/><line class="cls-3" x1="20.11" y1="10.78" x2="22.11" y2="14.65"/></g></g></g></g></svg>