<svg xmlns="http://www.w3.org/2000/svg" viewBox="0 0 29.49 30.15"><defs><style>.cls-1{isolation:isolate;}.cls-2{opacity:0.86;mix-blend-mode:hard-light;}.cls-3,.cls-5{fill:none;stroke-miterlimit:10;}.cls-3{stroke:#a61f1c;}.cls-4{fill:#a61f1c;}.cls-5{stroke:#a6201d;}</style></defs><title>Ampla diversidade de clientes</title><g class="cls-1"><g id="Camada_2" data-name="Camada 2"><g id="Camada_1-2" data-name="Camada 1"><g class="cls-2"><path class="cls-3" d="M18.15,22.63a1.25,1.25,0,0,0-.48-1.6c-1-.5-4.78.51-4.78.51l-2.86-1H6.21v-1H1.91V29.65h4.3V28.13h7.64l10.6-4.69a2,2,0,0,0,.89-2.87l0,0c-1-1.52-11.94,4.56-11.94,4.56"/><line class="cls-3" x1="6.21" y1="20.27" x2="6.21" y2="27.88"/><ellipse class="cls-4" cx="3.82" cy="27.12" rx="0.48" ry="0.51"/><path class="cls-5" d="M26.38,5.36c0,1.66-1.26,3.45-2.82,3.45S20.73,7,20.73,5.36a2.83,2.83,0,1,1,5.65,0Z"/><path class="cls-5" d="M20.05,17.29H27c.73,0,1.37-.69,1.59-1.71l.37-1.71a2.88,2.88,0,0,0-1-3.06c-2.8-1.51-5.71-1.32-8.68.14a2.81,2.81,0,0,0-1.07,3l.29,1.55C18.64,16.54,19.3,17.29,20.05,17.29Z"/><path class="cls-5" d="M8.79,5.56C8.79,7.22,7.52,9,6,9S3.14,7.22,3.14,5.56A2.76,2.76,0,0,1,6,2.73,2.77,2.77,0,0,1,8.79,5.56Z"/><path class="cls-5" d="M2.46,17.49h6.9c.72,0,1.36-.7,1.59-1.71l.37-1.71a2.88,2.88,0,0,0-1-3.06C7.5,9.5,4.6,9.69,1.62,11.15a2.81,2.81,0,0,0-1.06,3l.28,1.55C1,16.74,1.7,17.49,2.46,17.49Z"/><path class="cls-5" d="M17.79,3.72c0,1.89-1.44,3.92-3.21,3.92s-3.22-2-3.22-3.92a3.22,3.22,0,1,1,6.43,0Z"/><path class="cls-5" d="M10.59,17.29h7.84c.83,0,1.56-.79,1.81-1.95l.42-1.94a3.28,3.28,0,0,0-1.14-3.48c-3.2-1.72-6.5-1.5-9.88.16a3.19,3.19,0,0,0-1.21,3.38l.32,1.76C9,16.44,9.73,17.29,10.59,17.29Z"/></g></g></g></g></svg>