<svg xmlns="http://www.w3.org/2000/svg" viewBox="0 0 35.88 26.1"><defs><style>.cls-1{isolation:isolate;}.cls-2{fill:#a61e1b;opacity:0.86;mix-blend-mode:hard-light;}</style></defs><title>bicicletario</title><g class="cls-1"><g id="Camada_2" data-name="Camada 2"><g id="Camada_1-2" data-name="Camada 1"><path class="cls-2" d="M28.83,8.09a5.7,5.7,0,0,0-2.31.49L24.4,1.73h2.68a.61.61,0,0,1,.52.67.61.61,0,0,1-.52.67H26a.37.37,0,0,0-.31.4.36.36,0,0,0,.31.39h1A1.33,1.33,0,0,0,28.22,2.4,1.32,1.32,0,0,0,27.08,1H23.89l0,0h0l0,0h0l0,0s0,0,0,0l0,0a.08.08,0,0,1,0,0v0s0,0,0,0v0s0,0,0,.05v.08h0v.07a.08.08,0,0,1,0,0,0,0,0,0,1,0,0l.64,2.06h-11l-.45-1.75,2.48-.64h0a.33.33,0,0,0,.21-.32.32.32,0,0,0-.25-.37L10.87,0h-.11a1.1,1.1,0,0,0-.25,0A1.19,1.19,0,0,0,9.8,1.38c.1.63.58,1,1.07.91l1.39-.35.5,1.94L10.35,9.14a5.85,5.85,0,0,0-3.3-1.05c-3.89,0-7,4-7,9s3.16,9,7.05,9,6.88-3.83,7-8.61h.61a2.05,2.05,0,0,0,1.64,1.9V21.9h-.49c-.07,0-.13.08-.13.17s.06.17.13.17H17.1c.07,0,.13-.08.13-.17s-.06-.17-.13-.17h-.49V19.39a2.15,2.15,0,0,0,1.67-2.3,2.72,2.72,0,0,0-.45-1.51L24.66,4.71,26,8.87c-2.46,1.41-4.17,4.57-4.17,8.22,0,5,3.16,9,7,9s7.05-4,7.05-9S32.72,8.09,28.83,8.09ZM13,4.88l2.62,10.18a2.38,2.38,0,0,0-.93,1.64h-.61a9.78,9.78,0,0,0-3.21-7.17ZM7.91,16.7a1.25,1.25,0,0,0-.16-.35l2.6-5.66a8.27,8.27,0,0,1,2.7,6Zm-.86,8.06c-3.31,0-6-3.44-6-7.67s2.69-7.67,6-7.67a5,5,0,0,1,2.77.87l-2.6,5.65-.17,0a1.07,1.07,0,0,0-.92,1.17,1.07,1.07,0,0,0,.92,1.18,1,1,0,0,0,.86-.78H13C12.88,21.54,10.26,24.76,7.05,24.76Zm9.43-6.15a1.39,1.39,0,0,1-1.19-1.51h0v0a1.38,1.38,0,0,1,1.19-1.5,1.38,1.38,0,0,1,1.18,1.51A1.38,1.38,0,0,1,16.48,18.61Zm.87-3.53a1.54,1.54,0,0,0-.87-.29,1.09,1.09,0,0,0-.26,0l-2.7-10.5H24.11Zm11.48,9.68c-3.31,0-6-3.44-6-7.67a8,8,0,0,1,3.51-7l1.89,6.1a1.25,1.25,0,0,0-.32.87,1.07,1.07,0,0,0,.92,1.18,1.07,1.07,0,0,0,.92-1.18,1.07,1.07,0,0,0-.92-1.17h0l-1.89-6.1a4.83,4.83,0,0,1,1.92-.41c3.31,0,6,3.44,6,7.67S32.14,24.76,28.83,24.76Z"/></g></g></g></svg>