<svg xmlns="http://www.w3.org/2000/svg" viewBox="0 0 32.14 30.65"><defs><style>.cls-1{isolation:isolate;}.cls-2{opacity:0.86;mix-blend-mode:hard-light;}.cls-3{fill:none;stroke:#a61f1c;stroke-miterlimit:10;}.cls-4{fill:#a61f1c;}</style></defs><title>facilidade de locação</title><g class="cls-1"><g id="Camada_2" data-name="Camada 2"><g id="Camada_1-2" data-name="Camada 1"><g class="cls-2"><path class="cls-3" d="M13,7.58a1.16,1.16,0,0,0,.55,1.61c1.1.51,5.5-.51,5.5-.51l3.3,1h4.39v1h4.95V.5H26.69V2H17.9L5.69,6.76a2,2,0,0,0-1,2.9l0,0c1.1,1.54,13.74-4.6,13.74-4.6"/><line class="cls-3" x1="26.69" y1="9.96" x2="26.69" y2="2.29"/><ellipse class="cls-4" cx="29.44" cy="3.06" rx="0.55" ry="0.51"/><path class="cls-3" d="M19.19,23.07a1.16,1.16,0,0,0-.55-1.61c-1.1-.51-5.5.51-5.5.51l-3.3-1H5.45v-1H.5V30.15h5V28.62h8.79l12.21-4.73a1.94,1.94,0,0,0,1-2.89l0-.05c-1.09-1.53-13.74,4.6-13.74,4.6"/><line class="cls-3" x1="5.45" y1="20.69" x2="5.45" y2="28.36"/><ellipse class="cls-4" cx="2.7" cy="27.6" rx="0.55" ry="0.51"/><ellipse class="cls-3" cx="11.85" cy="15.33" rx="3.85" ry="3.58"/><ellipse class="cls-4" cx="10.75" cy="15.33" rx="0.55" ry="0.51"/><polygon class="cls-3" points="15.43 13.53 24.22 13.53 24.22 15.07 22.88 16.86 21.28 16.86 20.21 15.84 19.14 15.84 17.81 17.12 15.43 17.12 15.43 13.53"/></g></g></g></g></svg>