<svg xmlns="http://www.w3.org/2000/svg" viewBox="0 0 38.44 31.36"><defs><style>.cls-1{isolation:isolate;}.cls-2{opacity:0.86;mix-blend-mode:hard-light;}.cls-3{fill:#a61e1b;fill-rule:evenodd;}.cls-4{fill:none;stroke:#a61e1b;stroke-miterlimit:10;}</style></defs><title>Garagem coberta</title><g class="cls-1"><g id="Camada_2" data-name="Camada 2"><g id="Camada_1-2" data-name="Camada 1"><g class="cls-2"><path class="cls-3" d="M19.26,5.35h6.41c1.73,0,2.94.89,3.6,3,.15.72.54,1.42.68,2.12.39,2.29,1.47,3,3.2,2.64.67,0,1.74-.35,1.74,1.57,0,1.58-.41,1.94-1.47,1.94-1.07-.17-.94.88-.94,1.58,0,3.7-.13,7.21,0,10.73,0,1.76-.4,2.46-1.74,2.29H28.87c-1.73.35-2.8-.18-2.4-3,.13-1-.4-1.23-1.07-1.23H13.11c-1.07,0-1.21.7-1.07,1.77.13,1.75-.4,2.62-1.87,2.45C5.09,31,6,32.09,5.89,25.77c0-2.47,0-5.11.14-7.58,0-1.05-.27-1.75-1.21-1.58-1.2.18-1.34-.87-1.34-2.11,0-1.4.67-1.58,1.34-1.4,2.41.7,3.21-1,4-3.52,1.07-3.88,1.6-4.23,4.81-4.23ZM24.86,20h5.22c.13,0,.4.35.4.52v1.77a.5.5,0,0,1-.4.51H24.86a.5.5,0,0,1-.4-.51V20.48c0-.17.27-.52.4-.52ZM8.56,20h5.22c.26,0,.39.35.39.52v1.77c0,.33-.13.51-.39.51H8.56a.49.49,0,0,1-.39-.51V20.48c0-.17.26-.52.39-.52Zm10.7-4.58h9.47c1.35,0,1.88-.35,1.22-2.11a27.33,27.33,0,0,1-1.48-4.39C27.94,7.12,27,6.42,25.53,6.42c-3.2.17-6.41,0-9.61.17-6.16,0-4.82-1-7.36,6.33a.81.81,0,0,1-.13.53C7.76,15,8.29,15.38,9.5,15.38Z"/><polyline class="cls-4" points="37.94 31.36 37.94 0.5 0.5 0.5 0.5 31.36"/></g></g></g></g></svg>