<svg xmlns="http://www.w3.org/2000/svg" viewBox="0 0 30.27 31.62"><defs><style>.cls-1{isolation:isolate;}.cls-2{opacity:0.86;mix-blend-mode:hard-light;}.cls-3{fill:#a6211d;fill-rule:evenodd;}</style></defs><title>geladeira</title><g class="cls-1"><g id="Camada_2" data-name="Camada 2"><g id="Camada_1-2" data-name="Camada 1"><g class="cls-2"><path class="cls-3" d="M.86,4.87a1.91,1.91,0,0,0,.61-.35C2.67,3.64,4.08,2.81,5.37,2c0,0,0,0,0-.05s0,0-.06,0A29.82,29.82,0,0,0,.86,4.87Z"/><path class="cls-3" d="M9.65,1.88l0,.28c-.31.2-.83.19-.81-.2A.57.57,0,0,1,9.65,1.88Zm-.29,0c-.08.06-.2.08-.19.18C9.37,2.13,9.48,2,9.36,1.92Z"/><path class="cls-3" d="M8.22,1.89a.42.42,0,0,1,.13.39c-.42.34-1.07-.08-.79-.39A3.63,3.63,0,0,1,8.22,1.89Zm-.44.24c0,.11.15.06.27.05s0-.06.06-.07S7.82,2.09,7.78,2.13Z"/><path class="cls-3" d="M1.14,4.17c.09,0,.24-.13.35-.22.72-.56,1.62-1.17,2.37-1.74l-.07,0s-.06,0-.07,0a6.8,6.8,0,0,0-1.39,1,5.23,5.23,0,0,0-.69.5C1.42,3.79,1.08,4,1.14,4.17Z"/><path class="cls-3" d="M1.1,3.63a11.89,11.89,0,0,0,1.36-1s0,0,0-.05a2.1,2.1,0,0,0-.85.56C1.39,3.31,1.12,3.46,1.1,3.63Z"/><path class="cls-3" d="M21.05,2.67a.73.73,0,0,0,.28.24.39.39,0,0,0,0-.19c1.11-.43,2.47-.71,3.51-1.13,0,0,0,0,0,0C23.6,1.85,22.33,2.26,21.05,2.67Z"/><path class="cls-3" d="M8.52,2.81h-.1v0h.1Z"/><path class="cls-3" d="M24.75,2c-.42.07-.95.24-1.4.36s-1,.2-1.13.48c.85-.26,1.8-.51,2.54-.72C24.69,2,24.77,2,24.75,2Z"/><path class="cls-3" d="M15.8,3.24a6.52,6.52,0,0,0-.72.14c-.05.05,0,0,0,.1-.46.25-1.08.4-1.52.67.14.06.21,0,.37-.05.08.3-.17,1,.06,1.31a.34.34,0,0,0,0-.28,2.55,2.55,0,0,0,1.07-.36,7.23,7.23,0,0,0-1,.31c-.11-.33.1-.72,0-1a14.54,14.54,0,0,1,1.65-.66c-.11,0,0-.05-.14-.06A.68.68,0,0,1,15.8,3.24Z"/><path class="cls-3" d="M15.69,3.53c0-.06-.18,0-.16.08S15.58,3.52,15.69,3.53Z"/><path class="cls-3" d="M10.63,3.87s0,0,0,0,0,0,0,0a1.46,1.46,0,0,0-.12.67c0,.26-.18.56,0,.66a4.9,4.9,0,0,0,.27-1.34S10.64,3.91,10.63,3.87Z"/><path class="cls-3" d="M11.79,3.81c0,.38-.21.91.09,1.22.08-.33,0-.84.11-1.16C11.92,3.85,11.9,3.8,11.79,3.81Z"/><path class="cls-3" d="M9.68,4.06c-.32.26-.21.74-.19,1.07.26-.26.14-.65.26-1C9.76,4.07,9.68,4.1,9.68,4.06Z"/><path class="cls-3" d="M14.34,4.56a17,17,0,0,1,2.2-.77s-.08,0-.07-.06-.13.06-.19.08a9.06,9.06,0,0,0-1.73.53C14.45,4.39,14.24,4.45,14.34,4.56Z"/><path class="cls-3" d="M24.65,3.27c-.35.06-.13.47.13.46C24.83,3.6,24.65,3.45,24.65,3.27Z"/><path class="cls-3" d="M24.3,4c-.14-.14-.43-.27-.37-.49C23.44,3.43,24,4.12,24.3,4Z"/><path class="cls-3" d="M23.14,3.57a.42.42,0,0,0,.5.48c.06,0,.14-.08.12-.17s-.12,0-.23,0-.15-.24-.23-.36S23.25,3.58,23.14,3.57Z"/><path class="cls-3" d="M22.74,3.6h-.13a.41.41,0,0,0,.56.45C23.08,4,22.71,3.88,22.74,3.6Z"/><path class="cls-3" d="M20.35,4a.54.54,0,0,0,.56.5C20.71,4.35,20.67,4.07,20.35,4Z"/><path class="cls-3" d="M21,4a.58.58,0,0,0,.59.43C21.32,4.35,21.34,3.92,21,4Z"/><path class="cls-3" d="M22.33,3.93c-.08,0-.16,0-.19,0a0,0,0,0,1,0,0,.4.4,0,0,0,.54.15C22.56,4.08,22.22,4.11,22.33,3.93Z"/><path class="cls-3" d="M21.77,4a.79.79,0,0,0-.23,0,.49.49,0,0,0,.46.27C22,4.17,21.81,4.14,21.77,4Z"/><path class="cls-3" d="M19.73,4.17a.92.92,0,0,0,.36.42c.1,0,.28,0,.25-.13h-.19C20.1,4.3,20,4.07,19.73,4.17Z"/><path class="cls-3" d="M19.17,4.26c.11.24.21.48.66.44-.18-.14-.4-.24-.5-.45Z"/><path class="cls-3" d="M17.24,4.73A4.23,4.23,0,0,0,16.16,5a12.33,12.33,0,0,0-1.55.56c.11.09.33-.13.48-.17s-.06.08,0,.06.11,0,.06-.07l1-.26s0,0-.07,0a7.86,7.86,0,0,0,1.53-.46C17.55,4.56,17.24,4.64,17.24,4.73Z"/><path class="cls-3" d="M9.25,6.46H9.19c-.26.15-.11.48-.11.83a4.46,4.46,0,0,0,.07,1.34c.18-.13.12-.33.13-.51,0-.52,0-1.16,0-1.59Z"/><path class="cls-3" d="M10.4,6.68c-.05,0-.05,0-.1,0a8.38,8.38,0,0,0,0,1.9c.2-.22.14-.58.14-.88a5.66,5.66,0,0,0,0-1C10.41,6.74,10.41,6.71,10.4,6.68Z"/><path class="cls-3" d="M14.42,7.56a19.77,19.77,0,0,1,2.63-.87.09.09,0,0,0,0-.07l-.1,0a22.14,22.14,0,0,0-2.21.7C14.64,7.35,14.41,7.43,14.42,7.56Z"/><path class="cls-3" d="M19.59,7.75h-.1a.59.59,0,0,0,.71.7A1.09,1.09,0,0,1,19.59,7.75Z"/><path class="cls-3" d="M20.23,8s-.12,0-.16.06.23.61.6.45C20.38,8.41,20.39,8.12,20.23,8Z"/><path class="cls-3" d="M20.77,8.06c0,.19.2.56.51.5.09-.05-.09-.08-.15-.15s-.12-.25-.22-.36Z"/><path class="cls-3" d="M21.51,8.08a.27.27,0,0,0-.2.06.46.46,0,0,0,.59.38A.8.8,0,0,1,21.51,8.08Z"/><path class="cls-3" d="M23.3,8a.22.22,0,0,0-.2.08.46.46,0,0,0,.55.24A.56.56,0,0,1,23.3,8Z"/><path class="cls-3" d="M22.64,8.06c-.14,0-.13.08-.2.11.1.15.23.37.49.3A1.69,1.69,0,0,1,22.64,8.06Z"/><path class="cls-3" d="M22.11,8.13H22c-.14.17.12.5.45.36C22.29,8.4,22.13,8.33,22.11,8.13Z"/><path class="cls-3" d="M9.4,9.78a1.47,1.47,0,0,0-.08.76,3.48,3.48,0,0,0,.13,1.35,6,6,0,0,0,0-2.12Z"/><path class="cls-3" d="M8.61,9.88h-.1a15.6,15.6,0,0,0,0,1.81c0,.19,0,.44.17.55A12.58,12.58,0,0,0,8.61,9.88Z"/><path class="cls-3" d="M14,10.34a17.34,17.34,0,0,1,2.53-.94c0-.06-.15,0-.11-.06a6.71,6.71,0,0,0-1.36.43C14.64,9.92,14.14,10.05,14,10.34Z"/><path class="cls-3" d="M13.84,9.67A2.9,2.9,0,0,0,14,11.58C13.92,11,13.91,10.32,13.84,9.67Z"/><path class="cls-3" d="M22.28,9.52a8.4,8.4,0,0,0-.18,2.55c0,.28-.18.61,0,.87a.87.87,0,0,0,.06.72c.13-.18-.09-.8.09-1C22.14,11.67,22.46,10.58,22.28,9.52Z"/><path class="cls-3" d="M16.38,10.28s.07,0,.06-.08a.24.24,0,0,1-.16,0s0,0,.07,0-.09,0-.17,0-.46.08-.55.2a5.94,5.94,0,0,0-1.46.51c0,.06-.06.06,0,.12a19.09,19.09,0,0,1,1.91-.66,3.43,3.43,0,0,0,.68-.26c-.08.07-.12,0-.2,0a.1.1,0,0,1,0,.07C16.48,10.23,16.46,10.27,16.38,10.28Z"/><path class="cls-3" d="M10.69,10.72s0,0-.09,0a2.48,2.48,0,0,0,0,1.24c.13-.14.08-.48.11-.76S10.88,10.81,10.69,10.72Z"/><path class="cls-3" d="M13.74,11.9a.92.92,0,0,1-.1.41c-1.62,0-3.15.21-4.93.38-.13,0-.09-.09-.17-.1s-.35.1-.29.16c.22.21.68.08,1.17,0,.84-.09,2.32-.22,3.17-.25.46,0,1-.08,1.07.11s.1-.09.19-.14c1.22,0,2.35-.12,3.55-.14.15,0,.3.07.43,0-.14-.24-.62-.11-.94-.12-.62,0-1.58.1-2.32.08.29-.06.57-.21.87-.3s.71-.1.81-.34a8.3,8.3,0,0,0-1.92.65,2.75,2.75,0,0,0-.46,0c-.06-.06,0-.18,0-.33a13.31,13.31,0,0,1,1.58-.61,6.43,6.43,0,0,0,1.55-.6c-.16,0-.66.13-.64.25-.25,0-.52.13-.82.23A10,10,0,0,0,13.74,11.9Z"/><path class="cls-3" d="M8.77,13.55c-.45.18-.23.91-.07,1.3.17-.16,0-.52,0-.8s.06-.28.07-.4S8.8,13.6,8.77,13.55Z"/><path class="cls-3" d="M21.25,12.72h-.1a2.85,2.85,0,0,0,.08,1.15A2.64,2.64,0,0,0,21.25,12.72Z"/><path class="cls-3" d="M8.75,15.08H8.69c-.59.37.23.94,1,1,.26,0,.64,0,.93,0s.71,0,.85-.15C10.22,16,8.59,16.15,8.75,15.08Z"/><path class="cls-3" d="M16.79,14.54c-.25.21-.29.54-.79.6C16.42,15.39,17,14.8,16.79,14.54Z"/><path class="cls-3" d="M17.39,14.62a2.49,2.49,0,0,1-1.9,1.24c.08.13.32.06.44,0a3.1,3.1,0,0,0,1.34-.71C17.33,15,17.48,14.8,17.39,14.62Z"/><path class="cls-3" d="M9.39,15.6a2.51,2.51,0,0,0,1.92,0c-.14-.07-.34,0-.56.07C10.31,15.67,9.8,15.54,9.39,15.6Z"/><path class="cls-3" d="M18.59,15.09c.05.41.1.81.6.85.06-.1-.16-.17-.22-.24a1.94,1.94,0,0,0-.25-.64C18.66,15.06,18.66,15.09,18.59,15.09Z"/><path class="cls-3" d="M19.18,15.42c0,.19,0,.71.55.64C19.39,16,19.61,15.44,19.18,15.42Z"/><path class="cls-3" d="M20,15.5c-.43.09-.11.75.25.64A1.74,1.74,0,0,1,20,15.5Z"/><path class="cls-3" d="M20.5,15.7h-.13c-.1.24.14.67.47.62C20.79,16.17,20.54,16,20.5,15.7Z"/><path class="cls-3" d="M21.21,15.93h-.13c-.1.17.08.7.4.51A1.12,1.12,0,0,1,21.21,15.93Z"/><path class="cls-3" d="M1.35,17.47c-.06-.06-.14.05-.2.06S1.27,17.47,1.35,17.47Z"/><path class="cls-3" d="M21.8,16.22h-.13c-.05.19.11.54.43.44A3.2,3.2,0,0,1,21.8,16.22Z"/><path class="cls-3" d="M22.3,16.27c-.1,0-.12.05-.19.07,0,.2.11.38.42.36C22.53,16.59,22.33,16.44,22.3,16.27Z"/><path class="cls-3" d="M22.84,16.31a.25.25,0,0,1-.13,0,.31.31,0,0,0,.39.39A1.64,1.64,0,0,1,22.84,16.31Z"/><path class="cls-3" d="M9.6,19A1.62,1.62,0,0,1,10,20.5c.31.11.3.48.48.69-.36,0-.34-.39-.54-.57a2.64,2.64,0,0,1-.2.37c.18.34.55.67.6,1-.37-.18-.46-.6-.76-.84,0,.09-.19.07-.19.16.07.26.54.44.39.72-.25-.21-.39-.5-.65-.7-.11,0-.24,0-.29.09a8,8,0,0,1,.87,1c-.59-.24-.82-.77-1.28-1.11a1.61,1.61,0,0,0,.45-2c-.16,0-.31,0-.33-.07A2,2,0,0,1,9.6,19Zm-.52.22a2.07,2.07,0,0,1,0,1.95,1.27,1.27,0,0,0,.42-2A2,2,0,0,0,9.08,19.18Z"/><path class="cls-3" d="M1.62,26.65a1.67,1.67,0,0,0,.91-.26c1.1-.51,2.19-1.14,3.24-1.66.27-.14.7-.24.75-.53a.09.09,0,0,1-.1,0C4.82,25,3.33,25.89,1.62,26.65Z"/><path class="cls-3" d="M15.22,26.71c-.15,0,0,.26-.1.43.26-.11.22-.47.24-.74a6.48,6.48,0,0,0,0-1,.45.45,0,0,0-.16-.36c-.08.36,0,1.14-.11,1.6A.11.11,0,0,1,15.22,26.71Z"/><path class="cls-3" d="M6.31,1.21c.22.16.77,0,1.23,0l10-.43a5.63,5.63,0,0,1,1.53,0,2.22,2.22,0,0,1-1,.15c-2.46.1-5.22.19-7.88.36,3-.11,6.43-.18,9.42-.29a1.43,1.43,0,0,1,0,1.1c1.65-.61,3.6-1.2,5.5-1.74.27-.07.51-.21.77-.26a6,6,0,0,1,2.57.07c.17.27.06.65.2.94a3.36,3.36,0,0,0-.09,1c0,1.13,0,2.17,0,3.31a40.86,40.86,0,0,0,.06,4.1,2,2,0,0,0-.06,1c.71.1,1.39.22,1.58.7a2.16,2.16,0,0,1-.45,2,2.81,2.81,0,0,1-1.16.49c0,.74,0,1.65,0,2.46a.74.74,0,0,1-.19.55c0,.1.1.15.12.25a5.27,5.27,0,0,1-3,.94c-.09,0,0-.11-.11-.13-1.81-.26-3.65-.49-5.35-.85-.21,0-.31,0-.56,0-.12,3.31-.06,5.66-.13,8.73,0,.32-.07.63-.06.95a3.74,3.74,0,0,1,0,1.29c.39.07.31.51.32.84.12,0,.39-.15.44,0s-.45.2-.75.26-.71.11-1,.19c-.09.05.05.09-.06.12s-.15-.05-.3-.05-.36.09-.56.11c0,.09.17.08.08.16-.25.08-.24-.15-.37-.09-3.27.66-6.36,1.32-9.67,2-.11.05-.12.17-.32.17s0-.18-.14-.18c-.55,0-1-.33-1.55-.19,0-.17-.41-.29-.78-.18,0,0,0-.14,0-.14-1.12-.26-2.34-.44-3.38-.76-.07,0-.19.19-.22.09C.91,28.87.92,27.4.84,26c-.1,0-.29.09-.33,0,.56-.12.25-.67.27-1.21.06-1.57-.25-3.44-.19-4.94,0-.61,0-1.27-.06-1.75C.28,12.94.29,8,0,2.63,2.08,2.28,4,1.53,6.31,1.21ZM.93,5.82A52.55,52.55,0,0,1,6.14,2.09c0-.2-.1-.39.07-.52a4.09,4.09,0,0,0-1.29.09C3.37,2,1.81,2.49.28,2.8.56,7.22.55,11,.73,15.41c1-.6,1.45-.95,2.23-1.41,0,0,0,.05-.1.06s.21-.12.25-.21S3,14,3,14c.38-.1.33-.28.61-.33,0,0,0,0-.06,0a5.38,5.38,0,0,0,.76-.43c0-.05-.09.06-.16.06a3.64,3.64,0,0,1,.71-.36s0,0-.07,0L6.37,12a5.08,5.08,0,0,0,0-.86,6.82,6.82,0,0,1-1.26.58c.09.07-.13.11-.22.14a1.15,1.15,0,0,1-.58.3v.07c-.41,0-.4.31-.74.33,0,.09-.18.16-.19.18a10.1,10.1,0,0,1-1.53.84c.21-.28.86-.49,1.14-.81.4-.11.53-.38.93-.47.07-.14.11-.11.35-.19,0-.07,0-.13.22-.11.58-.44,1.28-.72,1.88-1.12,0-.35,0-.55,0-.87L5,10.66c-.07,0,0,.06,0,.07s-.31.11-.42.18-.15.15-.25.2-.3.08-.42.15,0,.07,0,.1a2,2,0,0,1-.55.22c.15.09-.21.08,0,.1-.31.14-.56.41-.9.46,0,0,0,0,0,0a8.55,8.55,0,0,1-1.35.71,29.73,29.73,0,0,1,2.55-1.55,6.58,6.58,0,0,0,.92-.58,16.8,16.8,0,0,0,1.75-1c.06-.13,0-.47,0-.66-1,.5-2,1-2.94,1.53-.38.23-.79.5-1.18.77a1.29,1.29,0,0,1-.64.32A6.67,6.67,0,0,1,3,10.81c0-.05,0-.07,0-.1,1.07-.62,2.21-1.2,3.26-1.83,0-.4,0-.56,0-.89-.33.11-.48.33-.86.42,0,.1-.27.2-.45.26a13.1,13.1,0,0,1-1.33.83s-.13,0-.17,0a1.2,1.2,0,0,1-.77.43c1.14-.8,2.48-1.46,3.6-2.28a2.58,2.58,0,0,1,0-.67c-.83.26-1.43.86-2.31,1.17-.57.49-1.36.73-1.9,1.24-.16-.05,0,.06-.17,0a1.46,1.46,0,0,1-.44.31s0,0,.07,0c-.35.11-.47.35-.8.46C2.25,8.94,4.49,7.9,6.25,6.7c0-.22,0-.39,0-.61A47.19,47.19,0,0,0,2,8.53a.08.08,0,0,1,.06,0c-.14,0-.27.28-.61.31,1.46-1.06,3.2-2,4.74-3a3.4,3.4,0,0,0,0-.63c-.64.28-1.11.67-1.79.93a2.2,2.2,0,0,1-.77.45.23.23,0,0,1-.28.16,1.63,1.63,0,0,1-.61.38c.15.06-.35.24-.54.32.17,0-.2.14-.32.19,1.31-1,2.94-1.76,4.33-2.69a3.25,3.25,0,0,1,0-.75A12.6,12.6,0,0,0,5,4.82c-.51.33-1,.68-1.49,1-.1,0-.06,0-.16,0A5.71,5.71,0,0,1,2,6.8c.13-.28.56-.39.75-.64C3.47,5.66,4.53,5,5.36,4.52c.19-.12.75-.46.82-.63s-.08-.48,0-.75c-.36.21-.69.47-1,.71s-.48.26-.7.41-.43.33-.67.49c-.67.44-1.45.94-2.09,1.42-.14.11-.2.3-.47.29,1.44-1.23,3.44-2.33,5-3.58,0-.23,0-.4,0-.56C5,3.1,3.71,3.88,2.57,4.65A1.05,1.05,0,0,1,2,5c0,.08-.21.23-.27.28A2.19,2.19,0,0,1,.93,5.82Zm9-4.52c-.06-.05-.25,0-.36,0C9.64,1.35,9.83,1.29,9.94,1.3ZM6.5,1.55c0,2.67,0,6,.14,8.67,0,.23-.1.45.2.52-.27.2-.2.66-.2.95,0,1,.06,2.11.06,3.12,0,.64.07,1.26.07,1.8a4.92,4.92,0,0,0,0,1.27,7.28,7.28,0,0,0,.9-.05,8.78,8.78,0,0,0,0-1.36c0-.23.09-.47.08-.68s-.07-.14-.08-.21c-.06-.48,0-1,0-1.5,0-.81,0-1.72,0-2.37,0-.19,0-.41,0-.61,0-1,0-2.39,0-3.55s0-2.49,0-3.61a1.18,1.18,0,0,1,.09-.64c.26,0,.18.32.16.41,2.23-.1,4.5-.34,6.8-.31-.1.14-.36.1-.53.11-1.68.13-3.5.15-5.36.3a16,16,0,0,1-.24,1.8C8.45,5.4,8.61,5,8.63,4.7a3.55,3.55,0,0,1,.13-.9A1.77,1.77,0,0,0,8,3.92C8,5.74,8,7.65,8,9.48c3.07-.14,6.76-.25,9.93-.56,0-.15-.24-.07-.33-.07-.42,0-1,.06-1.36.08-2.76.11-5.41.37-8,.42.28-.22.73-.13,1.08-.15,2.68-.15,5.73-.37,8.58-.51,0-1-.05-1.78-.08-2.86-2.93.12-6.24.38-9.2.53a1.26,1.26,0,0,0-.53.11c0-.35.75-.27,1.15-.29,2.08-.14,4.16-.24,6.25-.39-2.2,0-5.51.34-7.42.35,0-.3.48-.14.66-.14.35,0,.78,0,1.19-.08,2.47-.18,5.31-.27,7.84-.48a7.79,7.79,0,0,0,.07-1.3c-.08-.38-.32-.78-.12-1.23-.61.12-1.33.48-1.95.59.19-.39,1.08-.42,1.58-.63a27.82,27.82,0,0,0-3.11.18H12.1c-.74,0-1.47.07-2.12.09a9.59,9.59,0,0,0-1.65.14c0-.07-.09-.1-.08-.18a41.69,41.69,0,0,1,4.8-.26c.41,0,.82,0,1.23,0s.9-.09,1.32-.12a5.67,5.67,0,0,1,2.06,0c.68-.17,1.18-.45,1.85-.62-.21-.17.1-.72-.14-1C15,1.27,10.58,1.44,6.5,1.55Zm20.05-.46A8.17,8.17,0,0,1,27.49.3C26.87.23,26.45.59,26.55,1.09Zm.21-.76s-.14,0-.2,0,0,.07,0,.14S26.69.37,26.76.33ZM26.07.4a55.12,55.12,0,0,0-6,1.82c-.51.16-1.85.46-1.93.87,0,.09,0,.2,0,.3a38.54,38.54,0,0,0,.12,5.2c0,.09.24,0,.24.1s-.18.09-.26.14a47.34,47.34,0,0,0,.23,5.38A6.33,6.33,0,0,1,20.24,14c.13,0,0,.11.08.16,2,.2,3.65.66,5.68.81a20.07,20.07,0,0,1-.06-3.09c-.05,0-.05-.09-.14-.09.22-.22.13-.64.13-1,0-.66,0-1.38,0-1.92A3.5,3.5,0,0,0,24.63,9c-1,.11-2.14-.08-3.29,0a16.44,16.44,0,0,1-.1,3.69c-.25-.1-.07-.36-.07-.51s-.12-.44,0-.66A13.75,13.75,0,0,1,21.27,9a5.23,5.23,0,0,1-.56,0c0,1.75-.14,3.27-.17,4.56,0,.16.06.3,0,.4a2,2,0,0,1-.18-1c0-1.3.12-2.61.11-4a1.34,1.34,0,0,0-.36,0c.12,1.66-.12,3.29-.14,4.91a25.92,25.92,0,0,1,0-4.4c0-.18.1-.46-.17-.55-.16,1.55-.08,3.14-.16,4.61-.19-.08-.12-.26-.13-.37-.07-1.12-.17-2.07-.19-3.08a5,5,0,0,1,.17-.81,1.64,1.64,0,0,0,0-.52c-.1-.15-.5-.21-.69-.35s-.31-.47-.46-.81c.14-.15,0-.18.11-.34l.83-.08a6.16,6.16,0,0,1,.08-1.55c.06-.14.2-.25.11-.39a5,5,0,0,1-.5,0c0-.1,0-.22.15-.2-.37-.27-.92-.73-.65-1.22l.78-.22c0-.12,0-.29.21-.3,0-.21-.07-.41,0-.54.26.17.09.49.18.71.19,0,.2-.08.36-.07-.13-.27.08-.62-.21-.71a1.77,1.77,0,0,1,.68-.24c1.49-.47,3.14-1,4.69-1.33-.12.26-.75.3-1.17.42-1.23.35-2.62.79-3.84,1.17,0,.19,0,.48.05.6a2.23,2.23,0,0,0,.39-.09c0-.22-.07-.33.06-.53.17.06.15.28.17.46C21.84,3,23,2.67,24,2.43c.31-.08.67-.13,1-.21s.32-.2.51-.22a3.34,3.34,0,0,1,.64,0C26,1.48,26.1,1.1,26.07.4ZM27.72.31c-.36.36-.83.66-1.19,1a.9.9,0,0,1,0,.33c.16,0,.2-.13.29-.21s.21-.17.31-.26a6,6,0,0,1,1-.75C28.06.34,27.85.36,27.72.31Zm.48.22c-.6.43-1.08.94-1.66,1.39,0,.24,0,.5,0,.75.64-.48,1.09-1.07,1.71-1.56C28.26.83,28.18.8,28.2.53Zm0,.84c-.57.49-1.06,1-1.69,1.48a2.45,2.45,0,0,0,0,.61c.41-.32.94-.83,1.38-1.2.11-.09.28-.15.32-.23S28.18,1.61,28.23,1.37ZM25.15,2.46c-.06,0,.06.08.14.09.27.19.5.41.78.6.14-.51-.3-.64-.6-.85.26-.11.39.09.58.12a1.62,1.62,0,0,0,0-.23A.87.87,0,0,0,25.15,2.46Zm-.33,0c-1.28.33-2.59.63-3.92.92-.07,0-.06,0-.06.08a6.64,6.64,0,0,0-1.35.28c-.07.1,0,.21-.07.29-.19,0-.11-.16-.19-.22a5.61,5.61,0,0,0-.62.16c-.08.62.58.83,1.08,1,1.77-.33,3.91-.59,6.21-.9A2,2,0,0,1,25.53,4,2.46,2.46,0,0,1,24.82,2.46Zm3.44-.2c-.61.46-1.15,1-1.72,1.44-.05.17,0,.42,0,.59.57-.38,1.1-1,1.72-1.4A4.33,4.33,0,0,1,28.26,2.26Zm-3.06.46c-.14.43.55.6.8.88.23-.22-.12-.28-.26-.38S25.4,2.8,25.2,2.72Zm3,.43c-.15,0-.28.19-.41.31-.39.36-.93.75-1.28,1.13a1.48,1.48,0,0,0,0,.47c.1,0,.26-.16.38-.26.35-.31.75-.7,1.12-1,.31.11-.09.27-.2.37a16,16,0,0,1-1.32,1.15c0,.22,0,.46,0,.66a5,5,0,0,0,.63-.45c.37-.32.69-.72,1.09-1C28.19,4,28.23,3.69,28.23,3.15Zm-2.67.34a.47.47,0,0,0,.46.43c.07,0,0-.14.06-.16C25.92,3.66,25.65,3.65,25.56,3.49Zm.49.81c-1.76.19-3.59.54-5.23.71.16.58,0,1.43.11,2l.46,0a6.57,6.57,0,0,1,.14-1.81c.25.56,0,1.24.09,1.8a2.32,2.32,0,0,0,.7-.06,5.28,5.28,0,0,1,0-1.73c.19.12.2.4.21.57,0,.35-.06.76-.05,1.16a32.33,32.33,0,0,1,3.48-.14A18.09,18.09,0,0,0,26.05,4.3ZM20.23,7c.12,0,.17-.1.26-.14s-.2.13-.12.17h.39c-.13-.08,0-.22-.14-.2.15-.46-.05-1.29.13-1.79-.18,0-.25,0-.43,0C20.32,5.69,20.22,6.28,20.23,7Zm0-1.85c-.13-.06-.29,0-.47,0,0,.71-.08,1.25-.06,1.93l.3,0A11.84,11.84,0,0,1,20.2,5.15Zm8-.38c-.56.5-1.15,1-1.68,1.49,0,.17,0,.42,0,.63.17-.07.26-.22.4-.33l1.29-1C28.2,5.26,28.2,5.1,28.21,4.77Zm-10.54.86c-.05,0-.94,0-.43,0C17.28,5.67,17.67,5.7,17.67,5.63Zm-1.29.1a2.44,2.44,0,0,0-.76,0C15.89,5.76,16.2,5.76,16.38,5.73Zm11.8,0a19.07,19.07,0,0,0-1.65,1.41,2.1,2.1,0,0,0,0,.56c.55-.46,1.14-.89,1.67-1.36C28.15,6.14,28.21,6,28.18,5.76ZM19.47,7c-.09,0-.07.11,0,.14a.17.17,0,0,1,.1,0S19.5,7,19.47,7Zm8.75-.36a3.63,3.63,0,0,0-.85.65c-.38.31-1,.54-.85,1.14.12,0,.16-.09.22-.14.23-.18.47-.37.72-.59s.57-.36.72-.64A1.43,1.43,0,0,1,28.22,6.65ZM25.55,7a.58.58,0,0,1-.23,0,3.33,3.33,0,0,1,.66.49,4.86,4.86,0,0,1,0-.54C25.83,6.91,25.53,6.78,25.55,7Zm-5.3.27c-.07.06.06.11-.06.15s-.11-.1-.21-.13l-.52.06c-.05.13.12.24,0,.29s-.07-.2-.15-.27c-.3,0-.54.06-.76.08,0,.29.34.41.32.65.72.68,1.94.77,3.54.73a21.1,21.1,0,0,0,3.05-.15c.08-.05-.13-.13-.18-.2a1.8,1.8,0,0,1-.08-1.54h-.07c-1,.14-2.27.15-3.37.25-.13,0-.11.06-.19.08A4,4,0,0,0,20.25,7.25Zm5.08-.09a.41.41,0,0,0-.11.32c.31.09.45.32.7.46.08-.05,0-.17,0-.28C25.66,7.57,25.56,7.31,25.33,7.16Zm-.1.46c0,.32.42.57.75.74C25.92,8,25.45,7.89,25.23,7.62Zm2.94-.19c-.58.39-1.05.85-1.63,1.24a1.61,1.61,0,0,0,0,.59A15.71,15.71,0,0,0,28.18,8C28.12,7.74,28.22,7.58,28.17,7.43Zm-2.77.74c0,.19.32.37.57.45C25.8,8.45,25.58,8.33,25.4,8.17ZM8,9.72C8,11,8,12.14,8,13.3c.13,0,0-.06.06-.14a23.42,23.42,0,0,1,4.5-.3c.18.1.5.09.59.28a.3.3,0,0,0,.07-.31c1.16,0,2.64-.08,3.91-.21.19,0,.49-.13.51.1-1.09.19-2.93.21-4.17.3-.08.82-.43,1.93.09,2.58.06,0,.18-.08.23,0a4.68,4.68,0,0,1-.2-1.81c0-.12,0-.29.21-.32.11.39-.05.92,0,1.42.05.33.17.64.23.92-.25.09-.09-.17-.25-.17s-.09.08-.19.09c.14.75,2.87.46,3.46,0a2,2,0,0,0,.52-.69c.08-.27-.16-.65.17-.86a5.19,5.19,0,0,1-.1-1.35c.37,0,.25.43.28.7a3.13,3.13,0,0,0,.13.79c.2-.1.05-.3,0-.42-.08-.57-.05-1.23-.1-1.87A27.54,27.54,0,0,1,18,9.13c-3.05.16-6.38.41-9.5.51A1.28,1.28,0,0,0,8,9.72ZM28.16,8.2c-.57.44-1.1.92-1.66,1.37,0,.2,0,.38,0,.6.27-.07.35-.24.54-.41s.47-.3.66-.47.07-.15.15-.22.28-.18.31-.26S28.14,8.41,28.16,8.2Zm0,.89c-.58.43-1.11.89-1.66,1.34a1.5,1.5,0,0,0,0,.64,5.56,5.56,0,0,0,.54-.39c.16-.13.37-.26.5-.39s.05-.12.09-.15.47-.23.54-.39S28.06,9.33,28.19,9.09Zm0,1a10.76,10.76,0,0,0-1.7,1.32,2.11,2.11,0,0,1,0,.56c.57-.45,1.12-.91,1.69-1.37C28.18,10.36,28.16,10.21,28.17,10.08ZM2.77,15.16a16.66,16.66,0,0,1,2.6-1.76,3.4,3.4,0,0,1,1-.63c0-.23,0-.32,0-.52-.78.31-1.4.82-2.15,1.07,0,.17-.24.22-.45.27.11.13-.22.14-.35.21s.06,0,.07,0-.2.06-.32.14-.06.15-.23.16c0,.05.1,0,0,0-.25-.07-.27.27-.51.23,0,0,0,0,0,.07s-.29,0-.28.18c-.08,0-.16,0-.22.13s0,0-.11,0,0,.1-.12.18,0,0-.16,0V15c-.28,0-.55.35-.9.44.05,3,.18,5.8.29,8.9a8.43,8.43,0,0,0,1.34-.71,2.23,2.23,0,0,0,.87-.44C4.44,22.69,5.3,22,6.57,21.6a5.2,5.2,0,0,0,0-.68c-1.21.62-2.74,1.25-4.08,1.89-.2.09-.51.3-.58.23,0,.14-.18,0-.3.12a3.72,3.72,0,0,1,1.19-.63,1.33,1.33,0,0,1,.67-.33,6.75,6.75,0,0,1,1.39-.62c.53-.34,1.12-.56,1.73-.87a4,4,0,0,1,0-.68c-.94.29-1.88.9-2.8,1.21-.07,0,0,0,0,.07s-.1.08-.1,0a3.87,3.87,0,0,1-1.32.58c1.38-.72,2.7-1.42,4.24-2.09,0-.28,0-.52,0-.82-.92.42-1.74.78-2.48,1.17-.07,0-.14,0-.19,0s-.14.13-.25.21.06-.06.09-.08c-.28,0-.32.33-.81.34-.29.26-.46.22-.83.42.25-.29.82-.39,1.12-.65a9.53,9.53,0,0,0,1.53-.79c.13,0,.21,0,.23-.11a17.19,17.19,0,0,0,1.61-.75c0-.25,0-.41-.08-.61-.46.16-.78.52-1.26.59a.56.56,0,0,1-.51.25v.09c-.47.16-.8.53-1.32.59.14.07-.23.23-.32.16.1.11-.17.12-.22.21s0-.05,0-.05-.07.1-.15.13,0,0,0,0-.26.15-.38.26,0-.05-.1,0a.94.94,0,0,1-.52.25c.51-.28,1.21-.72,1.83-1,.07,0,.18,0,.26-.07s0-.08.06-.1.38-.16.48-.22c.68-.42,1.56-.82,2.27-1.27a5.54,5.54,0,0,0,0-.77c-.42.17-.53.38-1,.5a23.17,23.17,0,0,1-2.07,1.25s0,0,0,0a7.8,7.8,0,0,1-.7.38c-.17.09-.27.11-.42.19,0,0,0,.06,0,.07s-.44.14-.48.22-.34,0-.1,0a.68.68,0,0,1-.3.05c.24-.1.42-.24.68-.33.08,0-.11,0,0,.09s.12-.09,0-.14c1.56-.84,2.93-1.65,4.4-2.55a2,2,0,0,1,0-.49c-.52.17-.94.52-1.41.64A3.17,3.17,0,0,1,4,17.52a.35.35,0,0,1-.19.17c.13-.15-.32.15-.45.2s.06,0,.1,0c-.3.06-.28.23-.58.25.14,0-.32.31-.45.24,0,.07-.06.05-.09.08.15.08-.41.25-.54.37,0-.09-.1,0-.23,0,1.51-.93,3.22-1.89,4.89-2.73a2,2,0,0,0,0-.61c-.47.19-.84.48-1.22.65-.06,0-.1,0-.1,0s0,0,0,.1A5.14,5.14,0,0,1,4,16.81c0,.08-.14.16-.15.15a18.32,18.32,0,0,1-1.75,1.12c.25-.37,1-.67,1.32-1,.68-.3,1.16-.72,1.82-1a5.77,5.77,0,0,1,1.24-.73c-.08-.4,0-1-.06-1.4-.51.27-1.07.49-1.54.77a7.62,7.62,0,0,1-1.28.77,1.32,1.32,0,0,1-.76.48,24.66,24.66,0,0,1,3.59-2.25c0-.3,0-.42,0-.68-.62.21-1,.59-1.57.81a1.84,1.84,0,0,1-.8.51s0,0,.07,0c-.35.2-.71.52-1,.68A.36.36,0,0,1,2.77,15.16ZM3,23.45s.07,0,.07,0c-.2.22-.68.2-.9.46,0,0,0,0,0,0A7.91,7.91,0,0,0,1,24.42a9.68,9.68,0,0,0,.1,1.33,52.41,52.41,0,0,0,5.5-2.52c0-.27,0-.35,0-.63-.62.22-1.05.56-1.67.78a10.66,10.66,0,0,1-1.67.8s0,0-.07.08H3c0,.15-.34.13-.52.23,1.36-.72,2.69-1.45,4.1-2.13,0-.28,0-.29,0-.59C5.31,22.28,4.2,23,3,23.45ZM28.66,11c1.67,0,1.41,2.17-.09,2.31,0,.1.06.26,0,.32A1.68,1.68,0,0,0,30,11.8c0-.68-.41-1-1.24-1.08C28.55,10.76,28.69,10.85,28.66,11Zm-.5,0a11.22,11.22,0,0,0-1.66,1.29,1.84,1.84,0,0,0,0,.47,3.8,3.8,0,0,0,.66-.42s0-.09,0-.12C27.51,11.8,28.36,11.53,28.16,11Zm.49.31a9.19,9.19,0,0,0-.07,1.79C29.43,12.79,29.89,11.39,28.65,11.26Zm-.49.48c-.62.34-1,.87-1.67,1.27a2.76,2.76,0,0,1,0,.57c.36-.21.49-.55.88-.74C27.59,12.47,28.26,12.25,28.16,11.74ZM8.36,13.33c-.09.09,0,.17-.15.22,0,.75-.37,1.87.12,2.52s2.64.17,3.88,0A3,3,0,0,0,13,13.16a.47.47,0,0,1-.41-.12A22,22,0,0,0,8.36,13.33Zm19.78-.88a11.39,11.39,0,0,0-1.22,1c-.35.31-.54.5-.43,1,.41-.26.67-.62,1.07-.92S28.31,12.94,28.14,12.45Zm0,.91c-.57.43-1.07.9-1.67,1.32a3.06,3.06,0,0,1,0,.61c.11,0,.28-.17.41-.29.41-.33.88-.75,1.29-1.1A2.45,2.45,0,0,1,28.14,13.36Zm-9.69,1.13a16.12,16.12,0,0,0,3.2.57c.22,0,.42.1.64.14a21.84,21.84,0,0,1,2.62.32c.24-.1.34-.28.71-.31a5.33,5.33,0,0,0-1-.16c-.34,0-.69-.1-1.05-.16-.68-.1-1.34-.29-2-.39-.32,0-.68,0-1-.09A3.48,3.48,0,0,0,18.45,14.49Zm6.72,2.75a2.7,2.7,0,0,1-.32-1.53,51.64,51.64,0,0,1-6.79-1.07,1.86,1.86,0,0,0,.82,1.7C21.06,16.57,22.87,17.1,25.17,17.24Zm-12-2c-.14.05-.06.24-.17.31.06.05.17,0,.3,0C13.25,15.5,13.12,15.38,13.15,15.28Zm15-1.07c-.62.42-1.12.93-1.7,1.39,0,.15,0,.27,0,.44.58-.45,1.09-.95,1.66-1.41A.69.69,0,0,1,28.17,14.21ZM17.85,15.33a1.66,1.66,0,0,0-.4.55,5.53,5.53,0,0,1-3.12.51,3.8,3.8,0,0,0-.51-.13c-.53,0-1.11.28-1.62.07-1.33.17-3.6.78-4.14-.26A15.83,15.83,0,0,0,8,17.79c3.14-.19,6.86-.65,10.09-1.11.13-.12.11-.41.33-.4A2.78,2.78,0,0,1,17.85,15.33Zm-4.92.46a.66.66,0,0,0-.22.22,3.06,3.06,0,0,0,.73-.07c0-.09-.06-.09,0-.17A3.78,3.78,0,0,1,12.93,15.79ZM28.12,15a4.75,4.75,0,0,0-.87.72c-.46.42-1,.59-.77,1.35a8.42,8.42,0,0,0,1.13-1,2.89,2.89,0,0,0,.5-.39A5.5,5.5,0,0,1,28.12,15ZM12.53,16.24a4.14,4.14,0,0,0,1.12-.13A3.39,3.39,0,0,0,12.53,16.24Zm12.84-.75A3.35,3.35,0,0,0,26,16C26.06,15.73,25.8,15.26,25.37,15.49Zm-.05.19c-.12,0-.15.08-.23.11a5.55,5.55,0,0,0,.83.85.65.65,0,0,0,.07-.38A2,2,0,0,1,25.32,15.68Zm-6.7.72c-.09.05,0,.13,0,.19a2.31,2.31,0,0,1,.47.11c.13,0,.08-.12.22-.11a.18.18,0,0,1,.21.14c2,.3,3.93.67,6,.9-.34-.27-1.17-.14-1.62-.33a8.86,8.86,0,0,1-1.65-.23c-1.08-.14-2.44-.51-3.63-.62C18.63,16.44,18.63,16.42,18.62,16.4Zm6.49-.33c0,.43.57.66.78,1.05a.39.39,0,0,0,0-.27A3.38,3.38,0,0,1,25.11,16.07Zm3-.15a0,0,0,0,0,0,0A13.74,13.74,0,0,1,26.78,17c0,.21-.38.23-.3.51A2.17,2.17,0,0,0,28,16.63C28.16,16.46,28.07,16.18,28.09,15.92Zm-20,2c-.16,0-.06.12-.18.2C7.72,18,7.55,18,7.14,18c.21.06.5,0,.64.16a33.35,33.35,0,0,0,3.57-.35c.29,0,.58,0,.86,0,.57-.07,1-.23,1.68-.26.09,0,.2,0,.3,0,.8-.07,1.57-.23,2.4-.29.67-.05,1.3-.18,1.94-.26.15,0,.42,0,.49-.13a4.48,4.48,0,0,1-.57-.05,9.76,9.76,0,0,0-1.15.1c-1.59.2-3.45.56-5.17.66C10.73,17.69,9.41,17.9,8.09,17.92Zm-.1.45c0,4,.08,7.87.12,11.65,3.83-.69,7.42-1.36,10.89-2,.13-3.29.16-6.56.19-9.21a9.48,9.48,0,0,0,0-1.69c-2.51.33-5.33.72-7.94.95C10.18,18.14,9.16,18.32,8,18.37Zm17.3-1.63c-.07.09.17.34.18.52.11,0,.07.11.2.08a.18.18,0,0,0,.12.21c.3-.18-.12-.38-.28-.55S25.4,16.79,25.29,16.74ZM7.73,18.42c-.25,0-.29,0-.43,0s0-.23.12-.15c0-.07-.39-.07-.63,0s0,.36,0,.58c0,.61-.21,1.32.07,1.85,0,.08-.1.09-.09.17.06,2.18.07,4.07.17,5.94.13,0,.1-.08.26-.06,0,.19-.21.19-.28.3,0,.38.07.9,0,1.33,0,.12.18,0,.21.06s-.13.13-.19.2c0,.42,0,1,0,1.57.2.07.49-.06.76-.08,0-1,0-2.43,0-3.17a11.68,11.68,0,0,1,0-1.87C7.73,23.12,7.77,20.38,7.73,18.42ZM28.1,16.86c-.23.08-.29.26-.48.36A.79.79,0,0,0,28.1,16.86ZM26,17.67c0,.07.13,0,.18.08S26.08,17.61,26,17.67ZM1.1,25.89c0,1,0,1.92.08,3,.68.13,1.39.24,2,.41,1.09-.58,2.32-1.08,3.36-1.7.23.24-.31.38-.53.49-.81.4-1.78.85-2.56,1.24.33.1.73.14,1.08.23a10,10,0,0,1,2.18-1c0-.38,0-1-.07-1.41-1.63.66-2.73,1.23-4.31,1.94A.16.16,0,0,1,2.29,29a2.42,2.42,0,0,1,.76-.43,3.13,3.13,0,0,0,.84-.41c.14,0,.18-.06.29-.07s.13-.09.16-.15c.91-.31,1.51-.73,2.35-1a5.19,5.19,0,0,0,0-.66c-1.33.58-2.49,1.27-3.79,1.8-.07.07-.06,0-.17,0-.06.2-.36.26-.6.35A2.75,2.75,0,0,1,3,27.84a6.93,6.93,0,0,1,1-.48,25.28,25.28,0,0,1,2.37-1.27A2,2,0,0,0,6.69,26a2.37,2.37,0,0,1,0-.59c-1.61.55-3.24,1.4-4.88,1.93.08-.2.39-.23.61-.32a8.09,8.09,0,0,1,1.51-.65,24.53,24.53,0,0,1,2.71-1.16,10,10,0,0,0,0-1.74C4.86,24.35,2.82,25.22,1.1,25.89Zm5.62,2.83a9.1,9.1,0,0,0-2,.91,6.52,6.52,0,0,0,.84.18c.37-.22.76-.42,1.15-.63C6.71,29.05,6.75,28.9,6.72,28.72Zm-5.46.39H1.2c.2.24.7.3,1.12.36s.91.11,1.31.19A6.59,6.59,0,0,0,5.32,30C4.06,29.64,2.61,29.42,1.26,29.11Zm0,.31a1.54,1.54,0,0,0,0,.54s.12,0,.13.06c.12-.15.11-.37.23-.51S1.29,29.51,1.25,29.42Zm4.21.63c.42.24,1.08.18,1.55.4,0,.3.19.63.2.86A13,13,0,0,0,8.78,31c0-.22-.33-.44-.11-.65l.1,0c.09.12.09.4.18.59a3.18,3.18,0,0,0,.65-.14,1.06,1.06,0,0,1-.24-.57c.06,0,0,.08.07.09s-.06-.19,0-.21,0,.28.19.29c-.1.17.16.29,0,.38a2.27,2.27,0,0,0,.63-.1,1.46,1.46,0,0,1-.18-.62s.13.05.1,0c.18.09.22.36.31.59a5.87,5.87,0,0,0,.65-.14c-.06-.15-.19-.24-.17-.46.06,0,.13,0,.14,0,.2.05.14.31.26.42.28,0,.37-.08.56-.08-.08-.22-.31-.42-.25-.67.09,0,.19,0,.23,0s.17.46.25.59a4.4,4.4,0,0,0,.82-.15,1.55,1.55,0,0,0-.54-.5c.45-.13.65.28.73.46a5.88,5.88,0,0,0,.66-.14,3,3,0,0,1-.45-.67c.37-.09.45.44.68.63l.95-.19c-.27-.11-.53-.24-.54-.57.28,0,.51.38.6.55.22,0,.37-.09.59-.12a1,1,0,0,1-.27-.59c.38,0,.27.36.47.53s.25-.06.43-.05c-.09-.13-.13-.3-.27-.38.24-.22.42.16.49.31.2,0,.36-.08.56-.11-.05-.15-.19-.23-.32-.33.3-.11.45.12.52.29.2-.05.45-.08.65-.14,0-.11-.15-.14-.15-.27.22,0,.28.1.35.21a8.83,8.83,0,0,0,1.27-.28,1.67,1.67,0,0,0-.11-.62s-.06,0-.07,0c-3.4.5-7.41,1.41-11,2,0,0-.14.06-.19.1a2.13,2.13,0,0,0-.86.16A8.52,8.52,0,0,0,5.46,30.05Zm-4,0a3.36,3.36,0,0,0,.91.24,2,2,0,0,1,0-.63,4,4,0,0,0-.64-.07C1.67,29.71,1.71,29.84,1.5,30Zm1,.28c.12.05.31.05.44.11.14-.19.06-.42.11-.67-.2,0-.39-.11-.53-.05S2.64,30.17,2.55,30.29Zm4.19-.87a4.69,4.69,0,0,0-.83.46c.3,0,.52.16.84.19C6.71,29.83,6.78,29.66,6.74,29.42Zm-3.52,1a2,2,0,0,0,.37.06c0-.14-.09-.48.06-.61,0-.07-.22,0-.28-.1C3.21,30,3.3,30.18,3.22,30.43Zm.63-.54c-.15.17,0,.46,0,.68.15,0,.19,0,.31,0,0-.21,0-.4,0-.63A2.87,2.87,0,0,1,3.85,29.89Zm.61.16a1.14,1.14,0,0,0-.06.62c.08,0,.23.09.31,0,0-.21-.06-.47.19-.53C4.81,30.1,4.58,30.12,4.46,30.05ZM5,30.2c-.12.14-.08.39-.12.59.18,0,.27.07.44.07s.11-.4.19-.58A3.64,3.64,0,0,0,5,30.2Zm.85.15H5.81c-.19.12-.11.4-.16.6.13,0,.14.05.27,0A2.51,2.51,0,0,0,5.88,30.35Zm.28.71s.18,0,.24.05c.13-.14,0-.43,0-.64C6,30.29,6.17,30.76,6.16,31.06Zm.56-.49c0,.13-.19.64.18.6C6.8,31.05,6.93,30.66,6.72,30.57Z"/><path class="cls-3" d="M3.91,13.39Z"/><path class="cls-3" d="M15.67,4.65c0-.05-.05,0-.1,0a4.07,4.07,0,0,0,.81-.25c.17.06.49-.14.76-.17.06,0-.2,0-.14-.06-.42.23-1.38.31-1.89.61.09,0,.22-.13.24,0C15.42,4.7,15.58,4.7,15.67,4.65Z"/><path class="cls-3" d="M14.13,6.81c-.11,0,0-.1-.1-.11a.73.73,0,0,1-.51.34s.1,0,.07.11c.12,0,.17-.11.29-.14.06.48,0,.89,0,1.48.27-.39.11-1.08.19-1.51.27-.18.88-.23,1.23-.42.16,0,.38-.06.33-.12.29,0,.62-.19.68-.19A17.51,17.51,0,0,0,14.13,6.81Z"/><path class="cls-3" d="M8.44,8.93a5.56,5.56,0,0,0,0-1.64c-.17.06-.13.26-.14.41A4,4,0,0,0,8.38,9a.1.1,0,0,0,.06,0S8.45,8.9,8.44,8.93Z"/><path class="cls-3" d="M17.26,7.24c.16,0-.17,0-.2,0s.12-.06.19-.08a14.66,14.66,0,0,0-3.08,1c.22.07.44-.08.65-.17.45-.17,1-.29,1.49-.5A5.36,5.36,0,0,0,17.26,7.24Z"/><path class="cls-3" d="M17.11,27.09c.2-.09.12-.25.27-.39-.07-.15.08-.39,0-.47a17,17,0,0,0,.34-4c0-.48,0-1.32,0-1.83,0-.09.07-.24-.08-.25,0,0,0-.05,0,0,0,1.78-.12,3.84-.23,5.46C17.3,26.07,17.15,26.62,17.11,27.09Z"/><path class="cls-3" d="M23.48,10.49c-.05,0-.05,0-.1,0,0,.74-.06,1.45,0,2.09a1.33,1.33,0,0,0,.25.8c-.13-.34,0-.62,0-.88A16.08,16.08,0,0,0,23.48,10.49Z"/><path class="cls-3" d="M2.75,16.71s-.06,0-.07-.06a.71.71,0,0,0,.55-.3c.08,0,.13-.09.16,0,.19-.2.72-.31.79-.51A20.13,20.13,0,0,0,6.3,14.7c0-.08-.09-.1-.14-.13-1.52.91-3.27,1.87-4.82,2.83,0,.07.18,0,.17,0,.27-.2.66-.33.83-.55C2.55,16.86,2.48,16.77,2.75,16.71Z"/><path class="cls-3" d="M16.24,27.53c.35-.29.34-.83.4-1.32a14.16,14.16,0,0,0,.07-4.58c-.2,0-.15.24-.14.36,0,.37.11,1.11.11,1.54,0,1-.25,2-.21,3,0,0-.08,0-.06.07s.05,0-.06.15C16.4,27.1,16.25,27.2,16.24,27.53Z"/><path class="cls-3" d="M14.14,25.64s-.06,0-.06,0a9.68,9.68,0,0,0,.05,1.64c.21-.1.09-.39.09-.59C14.23,26.33,14.37,25.89,14.14,25.64Z"/></g></g></g></g></svg>