<svg xmlns="http://www.w3.org/2000/svg" viewBox="0 0 30.39 32.6"><defs><style>.cls-1{isolation:isolate;}.cls-2{opacity:0.86;mix-blend-mode:hard-light;}.cls-3{fill:#a61e1b;}</style></defs><title>Iluminação externa inteligente</title><g class="cls-1"><g id="Camada_2" data-name="Camada 2"><g id="Camada_1-2" data-name="Camada 1"><g class="cls-2"><path class="cls-3" d="M22.17,7.53a1.64,1.64,0,0,0-2.16,0,1.33,1.33,0,0,0,0,2,1.64,1.64,0,0,0,2.16,0A1.33,1.33,0,0,0,22.17,7.53Z"/><path class="cls-3" d="M27.66,2.5A9.86,9.86,0,0,0,18.16.44a.61.61,0,0,0-.43.79.6.6,0,0,0,.34.36.72.72,0,0,0,.52,0A8.4,8.4,0,0,1,26.7,3.38a6.82,6.82,0,0,1,1.91,7.43.6.6,0,0,0,.17.64.59.59,0,0,0,.27.15.72.72,0,0,0,.52,0,.63.63,0,0,0,.34-.36h0A8,8,0,0,0,27.66,2.5Z"/><path class="cls-3" d="M24,5.86A3.49,3.49,0,0,1,25,9.7a.62.62,0,0,0,0,.48.63.63,0,0,0,.4.31.72.72,0,0,0,.52,0,.66.66,0,0,0,.34-.36A4.68,4.68,0,0,0,25,5a5.8,5.8,0,0,0-5.59-1.22.6.6,0,0,0-.27,1,.73.73,0,0,0,.7.15A4.35,4.35,0,0,1,24,5.86Z"/><path class="cls-3" d="M15.36,18.29A2.42,2.42,0,0,0,12.84,16a2.42,2.42,0,0,0-2.51,2.3,2.4,2.4,0,0,0,2.19,2.29V24.2h.65V20.58A2.4,2.4,0,0,0,15.36,18.29ZM12.84,20a1.72,1.72,0,1,1,0-3.43,1.72,1.72,0,1,1,0,3.43Z"/><rect class="cls-3" x="12.52" y="4.61" width="0.64" height="3.02"/><rect class="cls-3" x="22.39" y="16.08" width="3.3" height="0.59"/><rect class="cls-3" y="16.08" width="3.3" height="0.59"/><polygon class="cls-3" points="3.99 24.91 3.54 24.49 5.87 22.35 6.32 22.77 3.99 24.91"/><polygon class="cls-3" points="21.7 24.91 19.37 22.77 19.82 22.35 22.15 24.49 21.7 24.91"/><polygon class="cls-3" points="5.87 10.4 3.54 8.26 3.99 7.85 6.32 9.98 5.87 10.4"/><path class="cls-3" d="M14.45,32.6H11.24a.73.73,0,0,1-.56-.29L10.41,32h4.87l-.28.36A.71.71,0,0,1,14.45,32.6Z"/><rect class="cls-3" x="9.08" y="27.85" width="7.52" height="1.11" rx="0.49"/><rect class="cls-3" x="9.08" y="29.22" width="7.52" height="1.11" rx="0.49"/><rect class="cls-3" x="9.08" y="30.59" width="7.52" height="1.11" rx="0.49"/><path class="cls-3" d="M14.36,27.44h-3a2.47,2.47,0,0,1-2.56-2.35V24a2.65,2.65,0,0,0-1.09-2.09,7.14,7.14,0,0,1-2.89-5.67c0-4.06,3.62-7.37,8.05-7.37h0c4.44,0,8.05,3.31,8.05,7.38A7.13,7.13,0,0,1,18,21.89,2.63,2.63,0,0,0,16.92,24v1.12A2.47,2.47,0,0,1,14.36,27.44Zm-1.52-18c-4.08,0-7.4,3-7.4,6.78a6.55,6.55,0,0,0,2.65,5.22A3.21,3.21,0,0,1,9.41,24v1.12a1.85,1.85,0,0,0,1.92,1.76h3a1.85,1.85,0,0,0,1.92-1.76V24a3.17,3.17,0,0,1,1.3-2.53,6.55,6.55,0,0,0,2.67-5.22C20.25,12.48,16.93,9.43,12.84,9.43Z"/></g></g></g></g></svg>