<svg xmlns="http://www.w3.org/2000/svg" viewBox="0 0 35.16 29.52"><defs><style>.cls-1{isolation:isolate;}.cls-2{opacity:0.86;mix-blend-mode:hard-light;}.cls-3{fill:#a61e1b;}</style></defs><title>monitoramento 24h</title><g class="cls-1"><g id="Camada_2" data-name="Camada 2"><g id="Camada_1-2" data-name="Camada 1"><g class="cls-2"><path class="cls-3" d="M17.52,17h0a1,1,0,0,0,.47.35h0l6.89,2.33L24,22.54,3.62,11.38A2.34,2.34,0,0,1,2.54,8.64L3.67,4.9A38.2,38.2,0,0,1,17.52,17Z"/><path class="cls-3" d="M26.48,20.19a5.32,5.32,0,0,0,2.85.15l-1.78,4.15a.5.5,0,0,1-.62.29L25,24.13a.54.54,0,0,1-.33-.67l1.06-3.52Z"/><path class="cls-3" d="M33.18,12.15l.28-.92L3.78,1.2,4.14,0l31,10.48-2.74,6.17a4.59,4.59,0,0,1-5.66,2.62L18.55,16.5a.89.89,0,0,1-.46-.35,39.71,39.71,0,0,0-15-12.63l.42-1.4Z"/><path class="cls-3" d="M14.74,22.06H12L8.16,14.94l4.35,2.38,2.61,4.78A2.33,2.33,0,0,0,14.74,22.06Z"/><path class="cls-3" d="M0,19V29.52H0a2.11,2.11,0,0,0,2.05-2.17V21.22A2.12,2.12,0,0,0,0,19Z"/><path class="cls-3" d="M3,20.66h.73a3.52,3.52,0,0,1,3.42,3.62h0a3.53,3.53,0,0,1-3.42,3.63H3Z"/><path class="cls-3" d="M7.77,25.83h7a1.4,1.4,0,0,0,0-2.8H7.85A4.71,4.71,0,0,1,8,24.28,4.89,4.89,0,0,1,7.77,25.83Zm6.43-1.42a.56.56,0,1,1,1.12,0,.56.56,0,1,1-1.12,0Z"/></g></g></g></g></svg>