<svg xmlns="http://www.w3.org/2000/svg" viewBox="0 0 23.61 32.05"><defs><style>.cls-1{isolation:isolate;}.cls-2{opacity:0.86;mix-blend-mode:hard-light;}.cls-3,.cls-4,.cls-5{fill:#a61e1b;}.cls-4{opacity:0.52;}.cls-5{opacity:0.17;}.cls-6{fill:#d2d2d2;}</style></defs><title>Pin</title><g class="cls-1"><g id="Camada_2" data-name="Camada 2"><g id="Camada_1-2" data-name="Camada 1"><g class="cls-2"><path class="cls-3" d="M23.61,10.65c0,5.88-11.81,21.4-11.81,21.4S0,16.53,0,10.65,5.28,0,11.8,0,23.61,4.77,23.61,10.65Z"/><path class="cls-4" d="M2,11.58C2,6.47,6.61,2.33,12.28,2.33A10.65,10.65,0,0,1,20.4,5.94,10.5,10.5,0,0,0,11.51,1.3C5.85,1.3,1.26,5.45,1.26,10.55a8.6,8.6,0,0,0,2.13,5.64A8.48,8.48,0,0,1,2,11.58Z"/><path class="cls-5" d="M9,28c1.61,2.43,2.78,4.08,2.78,4.08s11.81-15.52,11.81-21.4c0-.31,0-.62-.05-.92a25,25,0,0,1-1.93,4.75c-2.24,4.19-5.54,6.88-9.06,10.28C11.44,25.86,10.25,26.94,9,28Z"/></g><ellipse class="cls-6" cx="11.8" cy="10.18" rx="5.55" ry="5.01"/></g></g></g></svg>