<svg xmlns="http://www.w3.org/2000/svg" viewBox="0 0 30.96 30.76"><defs><style>.cls-1{isolation:isolate;}.cls-2{opacity:0.86;mix-blend-mode:hard-light;}.cls-3{fill:none;stroke:#c21d18;stroke-linecap:round;stroke-miterlimit:10;}.cls-4{fill:#a41a16;}.cls-5{fill:#c21d18;}.cls-6{fill:#d4d4d3;}</style></defs><title>Potencial de altos retornos</title><g class="cls-1"><g id="Camada_2" data-name="Camada 2"><g id="Camada_1-2" data-name="Camada 1"><g class="cls-2"><polygon class="cls-3" points="26.77 0.8 23.83 1.9 24.67 2.87 18.54 9.73 13.31 8.33 5.96 18.17 6.71 18.86 13.63 9.36 18.81 10.89 25.11 3.37 25.87 4.24 26.77 0.8"/><path class="cls-3" d="M28.65,28.25V7.41a.49.49,0,0,0-.45-.52H23.79a.49.49,0,0,0-.45.52V28.25h-.57v-15a.49.49,0,0,0-.45-.52H17.91a.49.49,0,0,0-.45.52v15h-.57V17.4a.49.49,0,0,0-.45-.52H12a.49.49,0,0,0-.45.52V28.25H11V22.33a.49.49,0,0,0-.45-.52H6.14a.49.49,0,0,0-.45.52v5.92H4v2H30.46v-2Z"/><ellipse class="cls-4" cx="7.98" cy="21.35" rx="7.1" ry="7.3"/><ellipse class="cls-5" cx="7.1" cy="21.35" rx="7.1" ry="7.3"/><path class="cls-6" d="M7.21,25.5v-1A2.81,2.81,0,0,1,5.7,24l.24-.68a2.56,2.56,0,0,0,1.41.43,1,1,0,0,0,1.17-1c0-.55-.38-.9-1.11-1.2-1-.41-1.62-.87-1.62-1.75a1.64,1.64,0,0,1,1.48-1.63v-1h.61v1a2.55,2.55,0,0,1,1.28.35l-.24.67a2.36,2.36,0,0,0-1.24-.34c-.76,0-1,.46-1,.87s.37.79,1.23,1.15,1.52.95,1.52,1.85a1.74,1.74,0,0,1-1.55,1.72V25.5Z"/><path class="cls-5" d="M3,13.5c-.42-.71-.88-1.39-1.36-2.05-.24-.32-.74,0-.51.34.49.66.94,1.35,1.37,2.05C2.73,14.18,3.23,13.84,3,13.5Z"/><path class="cls-5" d="M6.37,12.86a15.54,15.54,0,0,1-.26-2.64c0-.4-.61-.36-.61,0a16.43,16.43,0,0,0,.3,2.8C5.88,13.46,6.45,13.25,6.37,12.86Z"/><path class="cls-5" d="M9.43,10.43a8.16,8.16,0,0,0-.87,2.31.3.3,0,0,0,.59.13A7.53,7.53,0,0,1,10,10.71C10.17,10.37,9.63,10.09,9.43,10.43Z"/><path class="cls-5" d="M13.71,11.3A11.47,11.47,0,0,0,12,13.58c-.19.34.35.63.54.28a10.54,10.54,0,0,1,1.6-2.15C14.44,11.43,14,11,13.71,11.3Z"/></g></g></g></g></svg>