<svg xmlns="http://www.w3.org/2000/svg" viewBox="0 0 31.74 31.74"><defs><style>.cls-1{isolation:isolate;}.cls-2{opacity:0.86;mix-blend-mode:hard-light;}.cls-3,.cls-4{fill:none;stroke:#a6221e;stroke-linecap:round;}.cls-3{stroke-linejoin:round;}.cls-4{stroke-miterlimit:10;}</style></defs><title>tamanho ideal para o seu inquilino</title><g class="cls-1"><g id="Camada_2" data-name="Camada 2"><g id="Camada_1-2" data-name="Camada 1"><g class="cls-2"><polygon class="cls-3" points="0.5 0.5 6.51 0.5 6.51 3.68 6.51 25.09 0.77 30.83 0.5 0.5"/><line class="cls-4" x1="6.24" y1="3.78" x2="4.05" y2="3.78"/><line class="cls-4" x1="6.24" y1="6.51" x2="4.6" y2="6.51"/><line class="cls-4" x1="6.24" y1="9.79" x2="3.51" y2="9.79"/><line class="cls-4" x1="6.24" y1="12.52" x2="4.05" y2="12.52"/><line class="cls-4" x1="6.24" y1="15.25" x2="3.51" y2="15.25"/><line class="cls-4" x1="6.24" y1="18.53" x2="4.6" y2="18.53"/><line class="cls-4" x1="6.24" y1="21.27" x2="3.51" y2="21.27"/><polygon class="cls-3" points="31.24 31.24 31.24 25.23 28.06 25.23 6.65 25.23 0.91 30.97 31.24 31.24"/><line class="cls-4" x1="27.96" y1="25.5" x2="27.96" y2="27.69"/><line class="cls-4" x1="25.23" y1="25.5" x2="25.23" y2="27.14"/><line class="cls-4" x1="21.95" y1="25.5" x2="21.95" y2="28.23"/><line class="cls-4" x1="19.22" y1="25.5" x2="19.22" y2="27.69"/><line class="cls-4" x1="16.48" y1="25.5" x2="16.48" y2="28.23"/><line class="cls-4" x1="13.21" y1="25.5" x2="13.21" y2="27.14"/><line class="cls-4" x1="10.47" y1="25.5" x2="10.47" y2="28.23"/><polyline class="cls-3" points="26.18 3.78 28.37 3.78 28.37 5.96"/><polyline class="cls-3" points="12.52 3.78 10.34 3.78 10.34 5.96"/><polyline class="cls-3" points="10.34 19.63 10.34 21.81 12.52 21.81"/><polyline class="cls-3" points="28.64 19.9 28.64 22.09 26.46 22.09"/><polygon class="cls-3" points="19.09 6.11 13.34 9.18 19.61 12.25 25.36 9.18 19.09 6.11"/><polyline class="cls-3" points="25.36 9.52 25.36 16.07 19.9 19.9 13.34 16.62 13.34 9.52"/><line class="cls-3" x1="19.63" y1="19.56" x2="19.63" y2="12.52"/></g></g></g></g></svg>