<svg xmlns="http://www.w3.org/2000/svg" viewBox="0 0 32.87 30.63"><defs><style>.cls-1{isolation:isolate;}.cls-2{opacity:0.86;mix-blend-mode:hard-light;}.cls-3{fill:#a61e1b;}</style></defs><title>wi-fi</title><g class="cls-1"><g id="Camada_2" data-name="Camada 2"><g id="Camada_1-2" data-name="Camada 1"><g class="cls-2"><path class="cls-3" d="M.12,8.24A.65.65,0,0,0,.1,9l3.78,5.33a.35.35,0,0,0,.29.17h0a.36.36,0,0,0,.29-.15A16.51,16.51,0,0,1,12.2,8.59a13.36,13.36,0,0,1,4.35-.72,13.71,13.71,0,0,1,4.13.64A16.49,16.49,0,0,1,28.42,14,.34.34,0,0,0,29,14L32.76,9.2a.65.65,0,0,0,.11-.37.59.59,0,0,0-.12-.37C28.39,3,22.64,0,16.55,0A20.52,20.52,0,0,0,.12,8.24Z"/><path class="cls-3" d="M16.45,11.08a10.14,10.14,0,0,0-3,.5,15.13,15.13,0,0,0-7,5.25.63.63,0,0,0,0,.72l3.19,4.2a.37.37,0,0,0,.28.16.41.41,0,0,0,.29-.16c1.84-2.37,3.53-3.84,6.29-3.84s4.47,1.58,6.37,3.95a.38.38,0,0,0,.28.14h0a.39.39,0,0,0,.29-.17l3.11-4.47a.63.63,0,0,0,0-.72,15.06,15.06,0,0,0-7-5.06A9.76,9.76,0,0,0,16.45,11.08Z"/><path class="cls-3" d="M12.58,25.68c0,2.73,1.73,4.95,3.86,4.95s3.86-2.22,3.86-4.95-1.73-4.94-3.86-4.94S12.58,23,12.58,25.68Zm6,0a2.49,2.49,0,0,1-2.13,2.73,2.49,2.49,0,0,1-2.14-2.73A2.5,2.5,0,0,1,16.44,23,2.5,2.5,0,0,1,18.57,25.68Z"/></g></g></g></g></svg>